<?xml version="1.0" encoding="UTF-8" standalone="no"?>
<svg
   xmlns:osb="http://www.openswatchbook.org/uri/2009/osb"
   xmlns:dc="http://purl.org/dc/elements/1.1/"
   xmlns:cc="http://creativecommons.org/ns#"
   xmlns:rdf="http://www.w3.org/1999/02/22-rdf-syntax-ns#"
   xmlns:svg="http://www.w3.org/2000/svg"
   xmlns="http://www.w3.org/2000/svg"
   xmlns:xlink="http://www.w3.org/1999/xlink"
   xmlns:sodipodi="http://sodipodi.sourceforge.net/DTD/sodipodi-0.dtd"
   xmlns:inkscape="http://www.inkscape.org/namespaces/inkscape"
   inkscape:export-ydpi="72"
   inkscape:export-xdpi="72"
   inkscape:export-filename="H:\BeanzMaster\Documents\Projets\Lazarus\Components\BZScene\Resources\icons\TBZFileFinder.png"
   sodipodi:docname="TBZFileFinder_Icons.svg"
   inkscape:version="1.0 (4035a4fb49, 2020-05-01)"
   id="svg8"
   version="1.1"
   viewBox="0 0 8.4666665 8.4666669"
   height="32"
   width="32">
  <defs
     id="defs2">
    <linearGradient
       id="linearGradient3501"
       inkscape:collect="always">
      <stop
         id="stop3497"
         offset="0"
         style="stop-color:#aa4400;stop-opacity:1;" />
      <stop
         id="stop3499"
         offset="1"
         style="stop-color:#e7b978;stop-opacity:1" />
    </linearGradient>
    <linearGradient
       inkscape:collect="always"
       id="linearGradient3360">
      <stop
         style="stop-color:#aa4400;stop-opacity:1"
         offset="0"
         id="stop3356" />
      <stop
         style="stop-color:#ffccaa;stop-opacity:1"
         offset="1"
         id="stop3358" />
    </linearGradient>
    <linearGradient
       id="linearGradient4941"
       inkscape:collect="always">
      <stop
         id="stop4937"
         offset="0"
         style="stop-color:#0066ff;stop-opacity:1" />
      <stop
         id="stop4939"
         offset="1"
         style="stop-color:#80b3ff;stop-opacity:1" />
    </linearGradient>
    <linearGradient
       id="linearGradient17667"
       inkscape:collect="always">
      <stop
         id="stop17663"
         offset="0"
         style="stop-color:#1f241c;stop-opacity:1;" />
      <stop
         id="stop17665"
         offset="1"
         style="stop-color:#536c67;stop-opacity:1" />
    </linearGradient>
    <linearGradient
       osb:paint="gradient"
       id="linearGradient17657">
      <stop
         id="stop17653"
         offset="0"
         style="stop-color:#1f241c;stop-opacity:1;" />
      <stop
         id="stop17655"
         offset="1"
         style="stop-color:#1f241c;stop-opacity:0;" />
    </linearGradient>
    <marker
       inkscape:isstock="true"
       orient="auto"
       refY="0"
       refX="0"
       id="InfiniteLineEnd"
       inkscape:stockid="InfiniteLineEnd"
       style="overflow:visible">
      <g
         style="fill:#000000"
         id="g4813">
        <circle
           cx="3"
           cy="0"
           r="0.8"
           id="circle4807" />
        <circle
           cx="6.5"
           cy="0"
           r="0.8"
           id="circle4809" />
        <circle
           cx="10"
           cy="0"
           r="0.8"
           id="circle4811" />
      </g>
    </marker>
    <marker
       inkscape:isstock="true"
       style="overflow:visible"
       id="marker15942"
       refX="0"
       refY="0"
       orient="auto"
       inkscape:stockid="Arrow1Lstart">
      <path
         inkscape:connector-curvature="0"
         transform="matrix(0.8,0,0,0.8,10,0)"
         style="fill:#ffffff;fill-opacity:1;fill-rule:evenodd;stroke:#ffffff;stroke-width:1.00000003pt;stroke-opacity:1"
         d="M 0,0 5,-5 -12.5,0 5,5 Z"
         id="path15940" />
    </marker>
    <marker
       inkscape:isstock="true"
       style="overflow:visible"
       id="marker12931"
       refX="0"
       refY="0"
       orient="auto"
       inkscape:stockid="Arrow1Lstart">
      <path
         inkscape:connector-curvature="0"
         transform="matrix(0.8,0,0,0.8,10,0)"
         style="fill:#93a7ac;fill-opacity:1;fill-rule:evenodd;stroke:#f2f8f8;stroke-width:1.00000003pt;stroke-opacity:1"
         d="M 0,0 5,-5 -12.5,0 5,5 Z"
         id="path12929" />
    </marker>
    <marker
       inkscape:stockid="TriangleInL"
       orient="auto"
       refY="0.0"
       refX="0.0"
       id="marker6529"
       style="overflow:visible"
       inkscape:isstock="true">
      <path
         id="path6527"
         d="M 5.77,0.0 L -2.88,5.0 L -2.88,-5.0 L 5.77,0.0 z "
         style="fill-rule:evenodd;stroke:#000000;stroke-width:1pt;stroke-opacity:1;fill:#000000;fill-opacity:1"
         transform="scale(-0.8)" />
    </marker>
    <marker
       inkscape:isstock="true"
       style="overflow:visible"
       id="marker5721"
       refX="0.0"
       refY="0.0"
       orient="auto"
       inkscape:stockid="TriangleInM">
      <path
         transform="scale(-0.4)"
         style="fill-rule:evenodd;stroke:#000000;stroke-width:1pt;stroke-opacity:1;fill:#000000;fill-opacity:1"
         d="M 5.77,0.0 L -2.88,5.0 L -2.88,-5.0 L 5.77,0.0 z "
         id="path5719" />
    </marker>
    <marker
       inkscape:isstock="true"
       style="overflow:visible"
       id="TriangleInM"
       refX="0.0"
       refY="0.0"
       orient="auto"
       inkscape:stockid="TriangleInM">
      <path
         transform="scale(-0.4)"
         style="fill-rule:evenodd;stroke:#000000;stroke-width:1pt;stroke-opacity:1;fill:#000000;fill-opacity:1"
         d="M 5.77,0.0 L -2.88,5.0 L -2.88,-5.0 L 5.77,0.0 z "
         id="path4708" />
    </marker>
    <marker
       inkscape:isstock="true"
       style="overflow:visible;"
       id="Arrow1Mend"
       refX="0.0"
       refY="0.0"
       orient="auto"
       inkscape:stockid="Arrow1Mend">
      <path
         transform="scale(0.4) rotate(180) translate(10,0)"
         style="fill-rule:evenodd;stroke:#000000;stroke-width:1pt;stroke-opacity:1;fill:#000000;fill-opacity:1"
         d="M 0.0,0.0 L 5.0,-5.0 L -12.5,0.0 L 5.0,5.0 L 0.0,0.0 z "
         id="path4581" />
    </marker>
    <marker
       inkscape:isstock="true"
       style="overflow:visible"
       id="marker4835"
       refX="0.0"
       refY="0.0"
       orient="auto"
       inkscape:stockid="Arrow1Lstart">
      <path
         transform="scale(0.8) translate(12.5,0)"
         style="fill-rule:evenodd;stroke:#000000;stroke-width:1pt;stroke-opacity:1;fill:#000000;fill-opacity:1"
         d="M 0.0,0.0 L 5.0,-5.0 L -12.5,0.0 L 5.0,5.0 L 0.0,0.0 z "
         id="path4572" />
    </marker>
    <marker
       inkscape:stockid="EmptyDiamondS"
       orient="auto"
       refY="0"
       refX="0"
       id="marker8569"
       style="overflow:visible"
       inkscape:isstock="true">
      <path
         inkscape:connector-curvature="0"
         id="path8567"
         d="M 0,-7.0710768 -7.0710894,0 0,7.0710589 7.0710462,0 Z"
         style="fill:#ffffff;fill-rule:evenodd;stroke:#000000;stroke-width:1.00000003pt;stroke-opacity:1"
         transform="scale(0.2)" />
    </marker>
    <marker
       inkscape:stockid="Arrow2Sstart"
       orient="auto"
       refY="0"
       refX="0"
       id="marker8439"
       style="overflow:visible"
       inkscape:isstock="true">
      <path
         inkscape:connector-curvature="0"
         id="path8437"
         style="fill:#000000;fill-opacity:1;fill-rule:evenodd;stroke:#000000;stroke-width:0.625;stroke-linejoin:round;stroke-opacity:1"
         d="M 8.7185878,4.0337352 -2.2072895,0.01601326 8.7185884,-4.0017078 c -1.7454984,2.3720609 -1.7354408,5.6174519 -6e-7,8.035443 z"
         transform="matrix(0.3,0,0,0.3,-0.69,0)" />
    </marker>
    <marker
       inkscape:isstock="true"
       style="overflow:visible"
       id="Tail"
       refX="0"
       refY="0"
       orient="auto"
       inkscape:stockid="Tail">
      <g
         style="fill:#ff7f2a;fill-opacity:1;stroke:#ff7f2a;stroke-opacity:1"
         transform="scale(-1.2)"
         id="g5711">
        <path
           inkscape:connector-curvature="0"
           style="fill:#ff7f2a;fill-opacity:1;fill-rule:evenodd;stroke:#ff7f2a;stroke-width:0.80000001;stroke-linecap:round;stroke-opacity:1"
           d="M -3.8048674,-3.9585227 0.54352094,0"
           id="path5699" />
        <path
           inkscape:connector-curvature="0"
           style="fill:#ff7f2a;fill-opacity:1;fill-rule:evenodd;stroke:#ff7f2a;stroke-width:0.80000001;stroke-linecap:round;stroke-opacity:1"
           d="M -1.2866832,-3.9585227 3.0617053,0"
           id="path5701" />
        <path
           inkscape:connector-curvature="0"
           style="fill:#ff7f2a;fill-opacity:1;fill-rule:evenodd;stroke:#ff7f2a;stroke-width:0.80000001;stroke-linecap:round;stroke-opacity:1"
           d="M 1.3053582,-3.9585227 5.6537466,0"
           id="path5703" />
        <path
           inkscape:connector-curvature="0"
           style="fill:#ff7f2a;fill-opacity:1;fill-rule:evenodd;stroke:#ff7f2a;stroke-width:0.80000001;stroke-linecap:round;stroke-opacity:1"
           d="M -3.8048674,4.1775838 0.54352094,0.21974226"
           id="path5705" />
        <path
           inkscape:connector-curvature="0"
           style="fill:#ff7f2a;fill-opacity:1;fill-rule:evenodd;stroke:#ff7f2a;stroke-width:0.80000001;stroke-linecap:round;stroke-opacity:1"
           d="M -1.2866832,4.1775838 3.0617053,0.21974226"
           id="path5707" />
        <path
           inkscape:connector-curvature="0"
           style="fill:#ff7f2a;fill-opacity:1;fill-rule:evenodd;stroke:#ff7f2a;stroke-width:0.80000001;stroke-linecap:round;stroke-opacity:1"
           d="M 1.3053582,4.1775838 5.6537466,0.21974226"
           id="path5709" />
      </g>
    </marker>
    <marker
       inkscape:isstock="true"
       style="overflow:visible"
       id="marker7903"
       refX="0"
       refY="0"
       orient="auto"
       inkscape:stockid="Arrow2Mstart">
      <path
         inkscape:connector-curvature="0"
         transform="scale(0.6)"
         d="M 8.7185878,4.0337352 -2.2072895,0.01601326 8.7185884,-4.0017078 c -1.7454984,2.3720609 -1.7354408,5.6174519 -6e-7,8.035443 z"
         style="fill:#ff7f2a;fill-opacity:1;fill-rule:evenodd;stroke:#ff7f2a;stroke-width:0.625;stroke-linejoin:round;stroke-opacity:1"
         id="path7901" />
    </marker>
    <marker
       inkscape:isstock="true"
       style="overflow:visible"
       id="Arrow2Lend"
       refX="0"
       refY="0"
       orient="auto"
       inkscape:stockid="Arrow2Lend">
      <path
         inkscape:connector-curvature="0"
         transform="matrix(-1.1,0,0,-1.1,-1.1,0)"
         d="M 8.7185878,4.0337352 -2.2072895,0.01601326 8.7185884,-4.0017078 c -1.7454984,2.3720609 -1.7354408,5.6174519 -6e-7,8.035443 z"
         style="fill:#ff7f2a;fill-opacity:1;fill-rule:evenodd;stroke:#ff7f2a;stroke-width:0.625;stroke-linejoin:round;stroke-opacity:1"
         id="path5684" />
    </marker>
    <marker
       inkscape:isstock="true"
       style="overflow:visible"
       id="Arrow1Sstart"
       refX="0"
       refY="0"
       orient="auto"
       inkscape:stockid="Arrow1Sstart">
      <path
         inkscape:connector-curvature="0"
         transform="matrix(0.2,0,0,0.2,1.2,0)"
         style="fill:#ff7f2a;fill-opacity:1;fill-rule:evenodd;stroke:#ff7f2a;stroke-width:1.00000003pt;stroke-opacity:1"
         d="M 0,0 5,-5 -12.5,0 5,5 Z"
         id="path5675" />
    </marker>
    <marker
       inkscape:isstock="true"
       style="overflow:visible"
       id="Arrow1Send"
       refX="0"
       refY="0"
       orient="auto"
       inkscape:stockid="Arrow1Send">
      <path
         inkscape:connector-curvature="0"
         transform="matrix(-0.2,0,0,-0.2,-1.2,0)"
         style="fill:#ff7f2a;fill-opacity:1;fill-rule:evenodd;stroke:#ff7f2a;stroke-width:1.00000003pt;stroke-opacity:1"
         d="M 0,0 5,-5 -12.5,0 5,5 Z"
         id="path5678" />
    </marker>
    <marker
       inkscape:isstock="true"
       style="overflow:visible"
       id="marker7515"
       refX="0"
       refY="0"
       orient="auto"
       inkscape:stockid="Arrow2Mstart">
      <path
         inkscape:connector-curvature="0"
         transform="scale(0.6)"
         d="M 8.7185878,4.0337352 -2.2072895,0.01601326 8.7185884,-4.0017078 c -1.7454984,2.3720609 -1.7354408,5.6174519 -6e-7,8.035443 z"
         style="fill:#ff7f2a;fill-opacity:1;fill-rule:evenodd;stroke:#ff7f2a;stroke-width:0.625;stroke-linejoin:round;stroke-opacity:1"
         id="path7513" />
    </marker>
    <marker
       inkscape:isstock="true"
       style="overflow:visible"
       id="Arrow2Send"
       refX="0"
       refY="0"
       orient="auto"
       inkscape:stockid="Arrow2Send">
      <path
         inkscape:connector-curvature="0"
         transform="matrix(-0.3,0,0,-0.3,0.69,0)"
         d="M 8.7185878,4.0337352 -2.2072895,0.01601326 8.7185884,-4.0017078 c -1.7454984,2.3720609 -1.7354408,5.6174519 -6e-7,8.035443 z"
         style="fill:#ff7f2a;fill-opacity:1;fill-rule:evenodd;stroke:#ff7f2a;stroke-width:0.625;stroke-linejoin:round;stroke-opacity:1"
         id="path5696" />
    </marker>
    <marker
       inkscape:isstock="true"
       style="overflow:visible"
       id="marker7383"
       refX="0"
       refY="0"
       orient="auto"
       inkscape:stockid="Arrow1Mstart">
      <path
         inkscape:connector-curvature="0"
         transform="matrix(0.4,0,0,0.4,4,0)"
         style="fill:#ff7f2a;fill-opacity:1;fill-rule:evenodd;stroke:#ff7f2a;stroke-width:1.00000003pt;stroke-opacity:1"
         d="M 0,0 5,-5 -12.5,0 5,5 Z"
         id="path7381" />
    </marker>
    <marker
       inkscape:isstock="true"
       style="overflow:visible"
       id="Arrow1Mstart"
       refX="0"
       refY="0"
       orient="auto"
       inkscape:stockid="Arrow1Mstart">
      <path
         inkscape:connector-curvature="0"
         transform="matrix(0.4,0,0,0.4,4,0)"
         style="fill:#ff7f2a;fill-opacity:1;fill-rule:evenodd;stroke:#ff7f2a;stroke-width:1.00000003pt;stroke-opacity:1"
         d="M 0,0 5,-5 -12.5,0 5,5 Z"
         id="path5669" />
    </marker>
    <marker
       inkscape:isstock="true"
       style="overflow:visible"
       id="marker7275"
       refX="0"
       refY="0"
       orient="auto"
       inkscape:stockid="Arrow1Lend">
      <path
         inkscape:connector-curvature="0"
         transform="matrix(-0.8,0,0,-0.8,-10,0)"
         style="fill:#ff7f2a;fill-opacity:1;fill-rule:evenodd;stroke:#ff7f2a;stroke-width:1.00000003pt;stroke-opacity:1"
         d="M 0,0 5,-5 -12.5,0 5,5 Z"
         id="path7273" />
    </marker>
    <marker
       inkscape:isstock="true"
       style="overflow:visible"
       id="Arrow2Mstart"
       refX="0"
       refY="0"
       orient="auto"
       inkscape:stockid="Arrow2Mstart">
      <path
         inkscape:connector-curvature="0"
         transform="scale(0.6)"
         d="M 8.7185878,4.0337352 -2.2072895,0.01601326 8.7185884,-4.0017078 c -1.7454984,2.3720609 -1.7354408,5.6174519 -6e-7,8.035443 z"
         style="fill:#000000;fill-opacity:1;fill-rule:evenodd;stroke:#000000;stroke-width:0.625;stroke-linejoin:round;stroke-opacity:1"
         id="path5687" />
    </marker>
    <marker
       inkscape:isstock="true"
       style="overflow:visible"
       id="Arrow2Mend"
       refX="0"
       refY="0"
       orient="auto"
       inkscape:stockid="Arrow2Mend">
      <path
         inkscape:connector-curvature="0"
         transform="scale(-0.6)"
         d="M 8.7185878,4.0337352 -2.2072895,0.01601326 8.7185884,-4.0017078 c -1.7454984,2.3720609 -1.7354408,5.6174519 -6e-7,8.035443 z"
         style="fill:#4b3145;fill-opacity:0.5;fill-rule:evenodd;stroke:#4b3145;stroke-width:0.625;stroke-linejoin:round;stroke-opacity:0.5"
         id="path5690" />
    </marker>
    <marker
       inkscape:isstock="true"
       style="overflow:visible"
       id="Arrow1Lend"
       refX="0"
       refY="0"
       orient="auto"
       inkscape:stockid="Arrow1Lend">
      <path
         inkscape:connector-curvature="0"
         transform="matrix(-0.8,0,0,-0.8,-10,0)"
         style="fill:#4b3145;fill-opacity:0.5;fill-rule:evenodd;stroke:#4b3145;stroke-width:1.00000003pt;stroke-opacity:0.5"
         d="M 0,0 5,-5 -12.5,0 5,5 Z"
         id="path5666" />
    </marker>
    <linearGradient
       gradientTransform="translate(0.46486038,-1.5495344)"
       gradientUnits="userSpaceOnUse"
       y2="2.4516556"
       x2="2.8173351"
       y1="6.1001053"
       x1="6.7052579"
       id="linearGradient17691"
       xlink:href="#linearGradient17667"
       inkscape:collect="always" />
    <linearGradient
       gradientUnits="userSpaceOnUse"
       y2="8.0682354"
       x2="8.0084705"
       y1="0.41835293"
       x1="0.4382745"
       id="linearGradient4943"
       xlink:href="#linearGradient4941"
       inkscape:collect="always" />
    <linearGradient
       y2="-0.44883192"
       x2="-8.6651802"
       y1="8.7594595"
       x1="-8.7379112"
       gradientTransform="matrix(0.33339331,0,0,0.49471295,9.3068174,-0.87000484)"
       gradientUnits="userSpaceOnUse"
       id="linearGradient3464"
       xlink:href="#linearGradient3360"
       inkscape:collect="always" />
    <linearGradient
       gradientTransform="matrix(0.84340937,0,0,0.84340937,8.2796647,-7.6865392)"
       gradientUnits="userSpaceOnUse"
       y2="5.3339071"
       x2="-2.199667"
       y1="8.8045235"
       x1="-2.2230613"
       id="linearGradient3503"
       xlink:href="#linearGradient3501"
       inkscape:collect="always" />
    <linearGradient
       y2="5.3339071"
       x2="-2.199667"
       y1="8.8045235"
       x1="-2.2230613"
       gradientTransform="matrix(0.9242255,0,0,0.9242255,8.4583776,-8.2532951)"
       gradientUnits="userSpaceOnUse"
       id="linearGradient3507"
       xlink:href="#linearGradient17667"
       inkscape:collect="always" />
  </defs>
  <sodipodi:namedview
     inkscape:snap-global="false"
     inkscape:document-rotation="0"
     guidetolerance="3"
     objecttolerance="3"
     inkscape:window-maximized="1"
     inkscape:window-y="-8"
     inkscape:window-x="-8"
     inkscape:window-height="1017"
     inkscape:window-width="1920"
     units="px"
     showgrid="false"
     inkscape:current-layer="layer2"
     inkscape:document-units="mm"
     inkscape:cy="31.098608"
     inkscape:cx="22.025789"
     inkscape:zoom="12.921875"
     inkscape:pageshadow="2"
     inkscape:pageopacity="0.0"
     borderopacity="1.0"
     bordercolor="#666666"
     pagecolor="#ffffff"
     id="base" />
  <metadata
     id="metadata5">
    <rdf:RDF>
      <cc:Work
         rdf:about="">
        <dc:format>image/svg+xml</dc:format>
        <dc:type
           rdf:resource="http://purl.org/dc/dcmitype/StillImage" />
        <dc:title></dc:title>
      </cc:Work>
    </rdf:RDF>
  </metadata>
  <g
     sodipodi:insensitive="true"
     transform="translate(0,-288.53332)"
     id="layer1"
     inkscape:groupmode="layer"
     inkscape:label="Calque 1">
    <rect
       ry="1.3251487"
       y="288.77356"
       x="0.41307384"
       height="8.0915298"
       width="7.9386277"
       id="rect4935-0"
       style="opacity:1;fill:#333333;fill-opacity:0.70408164;stroke:none;stroke-width:0.02094643;stroke-miterlimit:4;stroke-dasharray:none;stroke-opacity:1" />
    <rect
       rx="1.1851538"
       ry="1.2702633"
       y="288.79077"
       x="0.24946646"
       height="7.9539385"
       width="7.9620771"
       id="rect10434"
       style="opacity:1;fill:none;fill-opacity:1;stroke:#93a7ac;stroke-width:0.10167526;stroke-linecap:square;stroke-linejoin:miter;stroke-miterlimit:4;stroke-dasharray:none;stroke-dashoffset:0;stroke-opacity:1;paint-order:markers stroke fill" />
    <g
       transform="translate(27.970238,19.465774)"
       id="g4980">
      <g
         id="g4605"
         transform="matrix(0.05893305,0,0,0.05893305,50.945792,279.8257)">
        <g
           id="g4548"
           transform="matrix(0.38356159,0,0,0.37671228,55.890413,73.356173)">
          <g
             id="unknown-2">
            <path
               id="path4545"
               d="M 255,357 H 382.5 V 318.75 H 255 Z M 255,0 C 114.75,0 0,114.75 0,255 0,395.25 114.75,510 255,510 395.25,510 510,395.25 510,255 510,114.75 395.25,0 255,0 Z M 102,153 h 51 v -51 h 38.25 v 51 h 51 v 38.25 h -51 v 51 H 153 v -51 h -51 z m 153,306 c -56.1,0 -107.1,-22.95 -145.35,-58.65 l 290.7,-290.7 C 436.05,147.9 459,198.9 459,255 459,367.2 367.2,459 255,459 Z"
               inkscape:connector-curvature="0" />
          </g>
        </g>
        <g
           id="g4550" />
        <g
           id="g4552" />
        <g
           id="g4554" />
        <g
           id="g4556" />
        <g
           id="g4558" />
        <g
           id="g4560" />
        <g
           id="g4562" />
        <g
           id="g4564" />
        <g
           id="g4566" />
        <g
           id="g4568" />
        <g
           id="g4570" />
        <g
           id="g4572" />
        <g
           id="g4574" />
        <g
           id="g4576" />
        <g
           id="g4578" />
      </g>
      <g
         transform="matrix(0.05410247,0,0,0.05410247,51.499257,280.62091)"
         id="g4679"
         style="fill:#b7bec8">
        <g
           transform="matrix(0.38356159,0,0,0.37671228,55.890413,73.356173)"
           id="g4647"
           style="fill:#b7bec8">
          <g
             id="g4645"
             style="fill:#b7bec8">
            <path
               inkscape:connector-curvature="0"
               d="M 255,357 H 382.5 V 318.75 H 255 Z M 255,0 C 114.75,0 0,114.75 0,255 0,395.25 114.75,510 255,510 395.25,510 510,395.25 510,255 510,114.75 395.25,0 255,0 Z M 102,153 h 51 v -51 h 38.25 v 51 h 51 v 38.25 h -51 v 51 H 153 v -51 h -51 z m 153,306 c -56.1,0 -107.1,-22.95 -145.35,-58.65 l 290.7,-290.7 C 436.05,147.9 459,198.9 459,255 459,367.2 367.2,459 255,459 Z"
               id="path4643"
               style="fill:#b7bec8" />
          </g>
        </g>
        <g
           id="g4649"
           style="fill:#b7bec8" />
        <g
           id="g4651"
           style="fill:#b7bec8" />
        <g
           id="g4653"
           style="fill:#b7bec8" />
        <g
           id="g4655"
           style="fill:#b7bec8" />
        <g
           id="g4657"
           style="fill:#b7bec8" />
        <g
           id="g4659"
           style="fill:#b7bec8" />
        <g
           id="g4661"
           style="fill:#b7bec8" />
        <g
           id="g4663"
           style="fill:#b7bec8" />
        <g
           id="g4665"
           style="fill:#b7bec8" />
        <g
           id="g4667"
           style="fill:#b7bec8" />
        <g
           id="g4669"
           style="fill:#b7bec8" />
        <g
           id="g4671"
           style="fill:#b7bec8" />
        <g
           id="g4673"
           style="fill:#b7bec8" />
        <g
           id="g4675"
           style="fill:#b7bec8" />
        <g
           id="g4677"
           style="fill:#b7bec8" />
      </g>
    </g>
  </g>
  <g
     sodipodi:insensitive="true"
     inkscape:label="Calque 3"
     id="layer3"
     inkscape:groupmode="layer">
    <rect
       rx="1.1481918"
       ry="1.1054827"
       y="0.31464145"
       x="0.31465027"
       height="7.8373718"
       width="7.8373661"
       id="rect4935"
       style="opacity:1;fill:url(#linearGradient4943);fill-opacity:1;stroke:#333333;stroke-width:0.021;stroke-miterlimit:4;stroke-dasharray:none;stroke-opacity:1" />
  </g>
  <g
     inkscape:label="Calque 2"
     id="layer2"
     inkscape:groupmode="layer">
    <g
       transform="matrix(1.0685773,0,0,1.1145264,-4.0030296,-11.250869)"
       id="g3548">
      <g
         id="g3344"
         transform="translate(3.9499854,9.9411606)">
        <path
           sodipodi:nodetypes="csssssssc"
           d="m 3.6990855,0.76706796 3.1761703,0.0241973 c 0.013583,1.0348e-4 0.024517,0.0130712 0.024517,0.0293076 V 5.9563061 c 0,0.016236 -0.010934,0.029307 -0.024517,0.029307 H 2.8421799 c -0.013582,0 -0.024517,-0.013071 -0.024517,-0.029307 V 1.7239377 c 0,-0.040224 0.8814224,-0.95686974 0.8814226,-0.95686974 z"
           style="opacity:1;fill:#ffffff;fill-opacity:1;stroke:#000000;stroke-width:0.0720577;stroke-linecap:round;stroke-linejoin:miter;stroke-miterlimit:4;stroke-dasharray:none;stroke-dashoffset:0;stroke-opacity:1;paint-order:stroke fill markers"
           id="path3286" />
        <path
           inkscape:tile-y0="5.3515048"
           inkscape:tile-x0="3.1145834"
           inkscape:tile-h="0.30061083"
           inkscape:tile-w="0.30061233"
           inkscape:tile-cy="5.5018101"
           inkscape:tile-cx="3.2648894"
           d="m 3.7518183,5.4754236 a 0.09966403,0.09966403 0 0 1 0.097008,0.1014963 0.09966403,0.09966403 0 0 1 -0.1007424,0.097791 0.09966403,0.09966403 0 0 1 -0.098568,-0.099982 0.09966403,0.09966403 0 0 1 0.099216,-0.099339"
           sodipodi:arc-type="arc"
           sodipodi:open="true"
           sodipodi:end="4.7079035"
           sodipodi:start="4.7388656"
           sodipodi:ry="0.099664025"
           sodipodi:rx="0.099664025"
           sodipodi:cy="5.5750527"
           sodipodi:cx="3.7491798"
           sodipodi:type="arc"
           id="path3288"
           style="opacity:1;fill:#000000;fill-opacity:1;stroke:#000000;stroke-width:0.0305938;stroke-linecap:round;stroke-linejoin:miter;stroke-miterlimit:4;stroke-dasharray:none;stroke-dashoffset:0;stroke-opacity:1;paint-order:stroke fill markers" />
        <path
           inkscape:tile-y0="5.3515048"
           inkscape:tile-x0="3.1145834"
           d="M 3.4527949,5.4754236 A 0.09966403,0.09966403 0 0 1 3.549803,5.5769199 0.09966403,0.09966403 0 0 1 3.4490606,5.6747107 0.09966403,0.09966403 0 0 1 3.350493,5.5747283 0.09966403,0.09966403 0 0 1 3.4497094,5.4753897"
           sodipodi:arc-type="arc"
           sodipodi:open="true"
           sodipodi:end="4.7079035"
           sodipodi:start="4.7388656"
           sodipodi:ry="0.099664025"
           sodipodi:rx="0.099664025"
           sodipodi:cy="5.5750527"
           sodipodi:cx="3.4501565"
           sodipodi:type="arc"
           id="use3290"
           style="fill:#000000;fill-opacity:1;stroke:#000000;stroke-width:0.0305938;stroke-linecap:round;stroke-linejoin:miter;stroke-miterlimit:4;stroke-dasharray:none;stroke-dashoffset:0;stroke-opacity:1;paint-order:stroke fill markers" />
        <path
           transform="scale(-1,1)"
           inkscape:tile-y0="5.3515048"
           inkscape:tile-x0="3.1145834"
           d="m -4.045565,5.4754236 a 0.09966403,0.09966403 0 0 1 0.097008,0.1014963 0.09966403,0.09966403 0 0 1 -0.1007424,0.097791 0.09966403,0.09966403 0 0 1 -0.098568,-0.099982 0.09966403,0.09966403 0 0 1 0.099216,-0.099339"
           sodipodi:arc-type="arc"
           sodipodi:open="true"
           sodipodi:end="4.7079035"
           sodipodi:start="4.7388656"
           sodipodi:ry="0.099664025"
           sodipodi:rx="0.099664025"
           sodipodi:cy="5.5750527"
           sodipodi:cx="-4.0482035"
           sodipodi:type="arc"
           id="use3292"
           style="fill:#000000;fill-opacity:1;stroke:#000000;stroke-width:0.0305938;stroke-linecap:round;stroke-linejoin:miter;stroke-miterlimit:4;stroke-dasharray:none;stroke-dashoffset:0;stroke-opacity:1;paint-order:stroke fill markers" />
        <path
           inkscape:tile-y0="5.3515048"
           inkscape:tile-x0="3.1145834"
           d="m 4.3498656,5.4754236 a 0.09966403,0.09966403 0 0 1 0.097008,0.1014963 0.09966403,0.09966403 0 0 1 -0.1007423,0.097791 0.09966403,0.09966403 0 0 1 -0.098568,-0.099982 0.09966403,0.09966403 0 0 1 0.099216,-0.099339"
           sodipodi:arc-type="arc"
           sodipodi:open="true"
           sodipodi:end="4.7079035"
           sodipodi:start="4.7388656"
           sodipodi:ry="0.099664025"
           sodipodi:rx="0.099664025"
           sodipodi:cy="5.5750527"
           sodipodi:cx="4.3472271"
           sodipodi:type="arc"
           id="use3294"
           style="fill:#000000;fill-opacity:1;stroke:#000000;stroke-width:0.0305938;stroke-linecap:round;stroke-linejoin:miter;stroke-miterlimit:4;stroke-dasharray:none;stroke-dashoffset:0;stroke-opacity:1;paint-order:stroke fill markers" />
        <path
           style="opacity:1;fill:#000000;fill-opacity:1;stroke:#000000;stroke-width:0.0305938;stroke-linecap:round;stroke-linejoin:miter;stroke-miterlimit:4;stroke-dasharray:none;stroke-dashoffset:0;stroke-opacity:1;paint-order:stroke fill markers"
           id="path3296"
           sodipodi:type="arc"
           sodipodi:cx="4.9452739"
           sodipodi:cy="5.5805898"
           sodipodi:rx="0.099664025"
           sodipodi:ry="0.099664025"
           sodipodi:start="4.7388656"
           sodipodi:end="4.7079035"
           sodipodi:open="true"
           sodipodi:arc-type="arc"
           d="M 4.9479123,5.4809607 A 0.09966403,0.09966403 0 0 1 5.0449204,5.582457 0.09966403,0.09966403 0 0 1 4.944178,5.6802478 0.09966403,0.09966403 0 0 1 4.8456104,5.5802654 0.09966403,0.09966403 0 0 1 4.9448268,5.4809267"
           inkscape:tile-cx="3.2648894"
           inkscape:tile-cy="5.5018101"
           inkscape:tile-w="0.30061233"
           inkscape:tile-h="0.30061083"
           inkscape:tile-x0="3.1145834"
           inkscape:tile-y0="5.3515048" />
        <path
           inkscape:tile-y0="5.3515048"
           inkscape:tile-x0="3.1145834"
           d="m 4.6488887,5.4754236 a 0.09966403,0.09966403 0 0 1 0.097008,0.1014963 0.09966403,0.09966403 0 0 1 -0.1007424,0.097791 0.09966403,0.09966403 0 0 1 -0.098568,-0.099982 0.09966403,0.09966403 0 0 1 0.099216,-0.099339"
           sodipodi:arc-type="arc"
           sodipodi:open="true"
           sodipodi:end="4.7079035"
           sodipodi:start="4.7388656"
           sodipodi:ry="0.099664025"
           sodipodi:rx="0.099664025"
           sodipodi:cy="5.5750527"
           sodipodi:cx="4.6462502"
           sodipodi:type="arc"
           id="use3298"
           style="fill:#000000;fill-opacity:1;stroke:#000000;stroke-width:0.0305938;stroke-linecap:round;stroke-linejoin:miter;stroke-miterlimit:4;stroke-dasharray:none;stroke-dashoffset:0;stroke-opacity:1;paint-order:stroke fill markers" />
        <path
           transform="scale(-1,1)"
           inkscape:tile-y0="5.3515048"
           inkscape:tile-x0="3.1145834"
           d="m -5.2416586,5.4754236 a 0.09966403,0.09966403 0 0 1 0.097008,0.1014963 0.09966403,0.09966403 0 0 1 -0.1007424,0.097791 0.09966403,0.09966403 0 0 1 -0.098568,-0.099982 0.09966403,0.09966403 0 0 1 0.099216,-0.099339"
           sodipodi:arc-type="arc"
           sodipodi:open="true"
           sodipodi:end="4.7079035"
           sodipodi:start="4.7388656"
           sodipodi:ry="0.099664025"
           sodipodi:rx="0.099664025"
           sodipodi:cy="5.5750527"
           sodipodi:cx="-5.244297"
           sodipodi:type="arc"
           id="use3300"
           style="fill:#000000;fill-opacity:1;stroke:#000000;stroke-width:0.0305938;stroke-linecap:round;stroke-linejoin:miter;stroke-miterlimit:4;stroke-dasharray:none;stroke-dashoffset:0;stroke-opacity:1;paint-order:stroke fill markers" />
        <path
           inkscape:tile-y0="5.3515048"
           inkscape:tile-x0="3.1145834"
           d="m 5.5459591,5.4754236 a 0.09966403,0.09966403 0 0 1 0.097008,0.1014963 0.09966403,0.09966403 0 0 1 -0.1007424,0.097791 0.09966403,0.09966403 0 0 1 -0.098568,-0.099982 0.09966403,0.09966403 0 0 1 0.099216,-0.099339"
           sodipodi:arc-type="arc"
           sodipodi:open="true"
           sodipodi:end="4.7079035"
           sodipodi:start="4.7388656"
           sodipodi:ry="0.099664025"
           sodipodi:rx="0.099664025"
           sodipodi:cy="5.5750527"
           sodipodi:cx="5.5433207"
           sodipodi:type="arc"
           id="use3302"
           style="fill:#000000;fill-opacity:1;stroke:#000000;stroke-width:0.0305938;stroke-linecap:round;stroke-linejoin:miter;stroke-miterlimit:4;stroke-dasharray:none;stroke-dashoffset:0;stroke-opacity:1;paint-order:stroke fill markers" />
        <path
           inkscape:tile-y0="5.3515048"
           inkscape:tile-x0="3.1145834"
           d="m 5.8449823,5.4754236 a 0.09966403,0.09966403 0 0 1 0.097008,0.1014963 0.09966403,0.09966403 0 0 1 -0.1007423,0.097791 0.09966403,0.09966403 0 0 1 -0.098568,-0.099982 0.09966403,0.09966403 0 0 1 0.099216,-0.099339"
           sodipodi:arc-type="arc"
           sodipodi:open="true"
           sodipodi:end="4.7079035"
           sodipodi:start="4.7388656"
           sodipodi:ry="0.099664025"
           sodipodi:rx="0.099664025"
           sodipodi:cy="5.5750527"
           sodipodi:cx="5.8423438"
           sodipodi:type="arc"
           id="use3304"
           style="fill:#000000;fill-opacity:1;stroke:#000000;stroke-width:0.0305938;stroke-linecap:round;stroke-linejoin:miter;stroke-miterlimit:4;stroke-dasharray:none;stroke-dashoffset:0;stroke-opacity:1;paint-order:stroke fill markers" />
        <path
           inkscape:tile-y0="5.3515048"
           inkscape:tile-x0="3.1145834"
           d="m 6.1440059,5.4754236 a 0.09966403,0.09966403 0 0 1 0.097008,0.1014963 0.09966403,0.09966403 0 0 1 -0.1007424,0.097791 0.09966403,0.09966403 0 0 1 -0.098568,-0.099982 0.09966403,0.09966403 0 0 1 0.099216,-0.099339"
           sodipodi:arc-type="arc"
           sodipodi:open="true"
           sodipodi:end="4.7079035"
           sodipodi:start="4.7388656"
           sodipodi:ry="0.099664025"
           sodipodi:rx="0.099664025"
           sodipodi:cy="5.5750527"
           sodipodi:cx="6.1413674"
           sodipodi:type="arc"
           id="use3306"
           style="fill:#000000;fill-opacity:1;stroke:#000000;stroke-width:0.0305938;stroke-linecap:round;stroke-linejoin:miter;stroke-miterlimit:4;stroke-dasharray:none;stroke-dashoffset:0;stroke-opacity:1;paint-order:stroke fill markers" />
        <path
           sodipodi:nodetypes="cccccccccccccccssscccccccccccccsssccccccccccccccc"
           id="path3308"
           d="m 2.9551671,2.4035912 -0.00187,0.2135243 -0.00187,0.2135243 -0.00187,0.2135243 -0.00187,0.2135243 -0.00187,0.2135243 -0.00187,0.2135243 -0.00187,0.2135243 -0.00187,0.2135243 -0.00187,0.2135243 -0.00187,0.2135243 -0.00187,0.2135243 -0.00187,0.2135243 -0.00187,0.2135243 -0.00187,0.2135243 c 0,0 -0.00124,0.1423495 -0.00187,0.2135243 -6.221e-4,0.071175 -9.563e-4,0.1092127 0.049323,0.1595939 0.055566,0.055679 0.1061318,0.052875 0.1847922,0.052347 0.07866,-5.278e-4 0.2359812,-0.00158 0.2359812,-0.00158 l 0.2359812,-0.00158 0.2359812,-0.00158 0.2359812,-0.00158 0.2359812,-0.00158 0.2359812,-0.00158 0.2359811,-0.00158 0.2359812,-0.00158 0.2359812,-0.00158 0.2359812,-0.00158 0.2359812,-0.00158 0.2359812,-0.00158 0.2359812,-0.00158 c 0,0 0.1573208,-0.00106 0.2359812,-0.00158 0.07866,-5.278e-4 0.1293453,-0.00721 0.1847922,-0.063007 0.068079,-0.06851 0.051267,-0.1317403 0.051306,-0.2283239 L 6.7011835,5.2151954 6.701354,4.9253949 6.7014706,4.6356443 6.7015873,4.3458936 6.701704,4.056143 6.7018206,3.7663923 6.7019373,3.4766417 6.702054,3.186891 6.7021706,2.8971403 6.7022873,2.6073897 6.7024039,2.317639 6.7025206,2.0278884 6.7026373,1.7381377 6.7027539,1.4483871 6.7028706,1.1586364"
           style="fill:none;stroke:#000000;stroke-width:0.0660032;stroke-linecap:butt;stroke-linejoin:miter;stroke-miterlimit:4;stroke-dasharray:none;stroke-opacity:1" />
        <path
           inkscape:tile-y0="5.3515048"
           inkscape:tile-x0="3.1145834"
           d="m 3.1763741,5.4754236 a 0.09966403,0.09966403 0 0 1 0.097008,0.1014963 0.09966403,0.09966403 0 0 1 -0.1007424,0.097791 0.09966403,0.09966403 0 0 1 -0.098568,-0.099982 0.09966403,0.09966403 0 0 1 0.099216,-0.099339"
           sodipodi:arc-type="arc"
           sodipodi:open="true"
           sodipodi:end="4.7079035"
           sodipodi:start="4.7388656"
           sodipodi:ry="0.099664025"
           sodipodi:rx="0.099664025"
           sodipodi:cy="5.5750527"
           sodipodi:cx="3.1737356"
           sodipodi:type="arc"
           id="use3310"
           style="fill:#000000;fill-opacity:1;stroke:#000000;stroke-width:0.0305938;stroke-linecap:round;stroke-linejoin:miter;stroke-miterlimit:4;stroke-dasharray:none;stroke-dashoffset:0;stroke-opacity:1;paint-order:stroke fill markers" />
        <path
           inkscape:tile-y0="5.3515048"
           inkscape:tile-x0="3.1145834"
           d="m 6.4613777,5.4754236 a 0.09966403,0.09966403 0 0 1 0.097008,0.1014963 0.09966403,0.09966403 0 0 1 -0.1007424,0.097791 0.09966403,0.09966403 0 0 1 -0.098568,-0.099982 0.09966403,0.09966403 0 0 1 0.099216,-0.099339"
           sodipodi:arc-type="arc"
           sodipodi:open="true"
           sodipodi:end="4.7079035"
           sodipodi:start="4.7388656"
           sodipodi:ry="0.099664025"
           sodipodi:rx="0.099664025"
           sodipodi:cy="5.5750527"
           sodipodi:cx="6.4587393"
           sodipodi:type="arc"
           id="use3312"
           style="fill:#000000;fill-opacity:1;stroke:#000000;stroke-width:0.0305938;stroke-linecap:round;stroke-linejoin:miter;stroke-miterlimit:4;stroke-dasharray:none;stroke-dashoffset:0;stroke-opacity:1;paint-order:stroke fill markers" />
        <path
           id="path3314"
           d="M 3.3580006,2.866586 H 4.1565497"
           style="fill:#1a1a1a;stroke:#333333;stroke-width:0.296765px;stroke-linecap:butt;stroke-linejoin:miter;stroke-opacity:1" />
        <path
           id="path3316"
           d="M 4.2486899,2.8563482 H 5.2929464"
           style="fill:#1a1a1a;stroke:#333333;stroke-width:0.264583px;stroke-linecap:butt;stroke-linejoin:miter;stroke-opacity:1" />
        <path
           id="path3318"
           d="M 5.4874646,2.8461104 H 6.5010077"
           style="fill:#1a1a1a;stroke:#333333;stroke-width:0.264583px;stroke-linecap:butt;stroke-linejoin:miter;stroke-opacity:1" />
        <path
           id="path3320"
           d="M 3.132769,3.3068118 H 4.2794033"
           style="fill:#1a1a1a;stroke:#000000;stroke-width:0.264583px;stroke-linecap:butt;stroke-linejoin:miter;stroke-opacity:1" />
        <path
           id="path3322"
           d="M 4.4534462,3.3170495 H 4.9550986"
           style="fill:#1a1a1a;stroke:#000000;stroke-width:0.264583px;stroke-linecap:butt;stroke-linejoin:miter;stroke-opacity:1" />
        <path
           id="path3324"
           d="M 5.1291415,3.3170495 H 5.4772268"
           style="fill:#1a1a1a;stroke:#000000;stroke-width:0.264583px;stroke-linecap:butt;stroke-linejoin:miter;stroke-opacity:1" />
        <path
           id="path3326"
           d="M 5.6512697,3.3170495 H 6.4498185"
           style="fill:#1a1a1a;stroke:#000000;stroke-width:0.264583px;stroke-linecap:butt;stroke-linejoin:miter;stroke-opacity:1" />
        <path
           id="path3328"
           d="M 3.1225312,3.7367998 H 4.4943973"
           style="fill:#1a1a1a;stroke:#333333;stroke-width:0.264583px;stroke-linecap:butt;stroke-linejoin:miter;stroke-opacity:1" />
        <path
           id="path3330"
           d="M 4.7708181,3.7572753 H 5.4158"
           style="fill:#1a1a1a;stroke:#333333;stroke-width:0.264583px;stroke-linecap:butt;stroke-linejoin:miter;stroke-opacity:1" />
        <path
           id="path3332"
           d="M 5.6615075,3.7572753 H 6.3679161"
           style="fill:#1a1a1a;stroke:#333333;stroke-width:0.264583px;stroke-linecap:butt;stroke-linejoin:miter;stroke-opacity:1" />
        <path
           id="path3334"
           d="M 3.1839579,4.1565496 H 4.8629585"
           style="fill:none;stroke:#000000;stroke-width:0.264583px;stroke-linecap:butt;stroke-linejoin:miter;stroke-opacity:1" />
        <path
           id="path3336"
           d="M 5.0370012,4.1565496 H 5.4772268"
           style="fill:none;stroke:#000000;stroke-width:0.264583px;stroke-linecap:butt;stroke-linejoin:miter;stroke-opacity:1" />
        <path
           id="path3338"
           d="M 5.6512697,4.1463118 6.3679162,4.1360751"
           style="fill:none;stroke:#000000;stroke-width:0.264583px;stroke-linecap:butt;stroke-linejoin:miter;stroke-opacity:1" />
        <path
           style="fill:none;stroke:#333333;stroke-width:0.0405119;stroke-linecap:round;stroke-linejoin:round;stroke-miterlimit:4;stroke-dasharray:none;stroke-opacity:1"
           d="M 2.8299884,1.6970013 3.7226158,1.6862229 3.7339147,0.75925588"
           id="path3340" />
        <path
           id="path3342"
           d="M 2.8336701,1.6810056 3.7028086,1.670265 3.7138105,0.74656966"
           style="fill:none;stroke:#000000;stroke-width:0.0399046;stroke-linecap:round;stroke-linejoin:round;stroke-miterlimit:4;stroke-dasharray:none;stroke-opacity:1" />
      </g>
    </g>
    <g
       transform="matrix(1.1285789,-0.10502133,0.10502133,1.1285789,-0.97524857,-0.58216487)"
       id="g3639">
      <g
         transform="matrix(0.70981304,0.96818094,-0.83616009,0.61302315,9.4869223,-4.1412218)"
         style="fill:#1a1a1a;fill-opacity:0.473161;stroke:#1a1a1a;stroke-width:0.103975;stroke-miterlimit:4;stroke-dasharray:none;stroke-opacity:0.779324"
         id="g3435">
        <rect
           style="fill:#1a1a1a;fill-opacity:0.473161;stroke:#1a1a1a;stroke-width:0.103975;stroke-linecap:round;stroke-linejoin:round;stroke-miterlimit:4;stroke-dasharray:none;stroke-dashoffset:0;stroke-opacity:0.779324;paint-order:stroke fill markers"
           id="rect3431"
           width="0.52131784"
           height="3.2232034"
           x="3.243125"
           y="9.8882065" />
        <rect
           style="fill:#1a1a1a;fill-opacity:0.473161;stroke:#1a1a1a;stroke-width:0.103975;stroke-linecap:round;stroke-linejoin:round;stroke-miterlimit:4;stroke-dasharray:none;stroke-dashoffset:0;stroke-opacity:0.779324;paint-order:stroke fill markers"
           id="rect3433"
           width="0.33789122"
           height="0.41543514"
           x="3.3275964"
           y="9.4801626" />
      </g>
      <g
         id="g3628">
        <path
           transform="rotate(53.753333)"
           style="fill:none;fill-opacity:0.542744;stroke:url(#linearGradient3507);stroke-width:0.517106;stroke-linecap:round;stroke-linejoin:bevel;stroke-miterlimit:4;stroke-dasharray:none;stroke-dashoffset:0;stroke-opacity:1;paint-order:stroke markers fill"
           id="path3505"
           sodipodi:type="arc"
           sodipodi:cx="6.4145765"
           sodipodi:cy="-1.7717955"
           sodipodi:rx="1.4950026"
           sodipodi:ry="1.4950026"
           sodipodi:start="4.7388656"
           sodipodi:end="4.7079035"
           sodipodi:open="true"
           sodipodi:arc-type="arc"
           d="M 6.4541545,-3.2662742 A 1.4950026,1.4950026 0 0 1 7.9093168,-1.7437866 1.4950026,1.4950026 0 0 1 6.3981385,-0.27688326 1.4950026,1.4950026 0 0 1 4.9195818,-1.7766618 1.4950026,1.4950026 0 0 1 6.4078707,-3.2667831" />
        <rect
           transform="rotate(53.753333)"
           y="0.16142002"
           x="6.1499481"
           height="3.2232034"
           width="0.52131784"
           id="rect3441"
           style="fill:url(#linearGradient3464);fill-opacity:1;stroke:#aa4400;stroke-width:0.229458;stroke-linecap:round;stroke-linejoin:round;stroke-miterlimit:4;stroke-dasharray:none;stroke-dashoffset:0;stroke-opacity:1;paint-order:stroke fill markers" />
        <path
           transform="rotate(53.753333)"
           sodipodi:arc-type="arc"
           sodipodi:open="true"
           sodipodi:end="4.7079035"
           sodipodi:start="4.7388656"
           sodipodi:ry="1.3642766"
           sodipodi:rx="1.3642766"
           sodipodi:cy="-1.7717952"
           sodipodi:cx="6.4145775"
           sodipodi:type="arc"
           id="path3485"
           style="fill:#46a3d8;fill-opacity:0.542744;stroke:url(#linearGradient3503);stroke-width:0.498833;stroke-linecap:round;stroke-linejoin:bevel;stroke-miterlimit:4;stroke-dasharray:none;stroke-dashoffset:0;stroke-opacity:1;paint-order:markers fill stroke"
           d="m 6.4506947,-3.1355936 a 1.3642766,1.3642766 0 0 1 1.32792,1.3893582 1.3642766,1.3642766 0 0 1 -1.3790379,1.33863442 1.3642766,1.3642766 0 0 1 -1.3492687,-1.36863492 1.3642766,1.3642766 0 0 1 1.35815,-1.3598222" />
        <path
           d="M 5.2452335,3.0284492 A 1.0981106,1.1003315 0 0 1 6.3140805,4.1490098 1.0981106,1.1003315 0 0 1 5.2040886,5.2286601 1.0981106,1.1003315 0 0 1 4.1180579,4.1248135 1.0981106,1.1003315 0 0 1 5.2112371,3.0280746"
           sodipodi:arc-type="arc"
           sodipodi:open="true"
           sodipodi:end="4.7079035"
           sodipodi:start="4.7388656"
           sodipodi:ry="1.1003315"
           sodipodi:rx="1.0981106"
           sodipodi:cy="4.1283951"
           sodipodi:cx="5.2161627"
           sodipodi:type="arc"
           id="path3561"
           style="opacity:1;fill:none;fill-opacity:0.542744;stroke:#3f5f6b;stroke-width:0.0964733;stroke-linecap:round;stroke-linejoin:bevel;stroke-miterlimit:4;stroke-dasharray:none;stroke-dashoffset:0;stroke-opacity:0.709742;paint-order:stroke fill markers" />
        <rect
           transform="rotate(53.753333)"
           y="-0.34797272"
           x="6.2127023"
           height="0.41543514"
           width="0.40304422"
           id="rect3443"
           style="fill:#2b1100;fill-opacity:1;stroke:none;stroke-width:0.390513;stroke-linecap:round;stroke-linejoin:round;stroke-miterlimit:4;stroke-dasharray:none;stroke-dashoffset:0;stroke-opacity:1;paint-order:stroke fill markers" />
      </g>
    </g>
  </g>
</svg>
