<?xml version="1.0" encoding="UTF-8" standalone="no"?>
<svg
   xmlns:osb="http://www.openswatchbook.org/uri/2009/osb"
   xmlns:dc="http://purl.org/dc/elements/1.1/"
   xmlns:cc="http://creativecommons.org/ns#"
   xmlns:rdf="http://www.w3.org/1999/02/22-rdf-syntax-ns#"
   xmlns:svg="http://www.w3.org/2000/svg"
   xmlns="http://www.w3.org/2000/svg"
   xmlns:xlink="http://www.w3.org/1999/xlink"
   xmlns:sodipodi="http://sodipodi.sourceforge.net/DTD/sodipodi-0.dtd"
   xmlns:inkscape="http://www.inkscape.org/namespaces/inkscape"
   inkscape:export-ydpi="72"
   inkscape:export-xdpi="72"
   inkscape:export-filename="H:\BeanzMaster\Documents\Projets\Lazarus\Components\BZScene\Resources\icons\TBZSoundOpenALManager.png"
   sodipodi:docname="TBZSoundBassManager_Icons.svg"
   inkscape:version="1.0 (4035a4fb49, 2020-05-01)"
   id="svg8"
   version="1.1"
   viewBox="0 0 8.4666665 8.4666669"
   height="32"
   width="32">
  <defs
     id="defs2">
    <linearGradient
       id="linearGradient4941"
       inkscape:collect="always">
      <stop
         id="stop4937"
         offset="0"
         style="stop-color:#e06b2b;stop-opacity:1" />
      <stop
         id="stop4939"
         offset="1"
         style="stop-color:#cbbf73;stop-opacity:1" />
    </linearGradient>
    <linearGradient
       id="linearGradient17667"
       inkscape:collect="always">
      <stop
         id="stop17663"
         offset="0"
         style="stop-color:#1f241c;stop-opacity:1;" />
      <stop
         id="stop17665"
         offset="1"
         style="stop-color:#536c67;stop-opacity:1" />
    </linearGradient>
    <linearGradient
       osb:paint="gradient"
       id="linearGradient17657">
      <stop
         id="stop17653"
         offset="0"
         style="stop-color:#1f241c;stop-opacity:1;" />
      <stop
         id="stop17655"
         offset="1"
         style="stop-color:#1f241c;stop-opacity:0;" />
    </linearGradient>
    <marker
       inkscape:isstock="true"
       orient="auto"
       refY="0"
       refX="0"
       id="InfiniteLineEnd"
       inkscape:stockid="InfiniteLineEnd"
       style="overflow:visible">
      <g
         style="fill:#000000"
         id="g4813">
        <circle
           cx="3"
           cy="0"
           r="0.8"
           id="circle4807" />
        <circle
           cx="6.5"
           cy="0"
           r="0.8"
           id="circle4809" />
        <circle
           cx="10"
           cy="0"
           r="0.8"
           id="circle4811" />
      </g>
    </marker>
    <marker
       inkscape:isstock="true"
       style="overflow:visible"
       id="marker15942"
       refX="0"
       refY="0"
       orient="auto"
       inkscape:stockid="Arrow1Lstart">
      <path
         inkscape:connector-curvature="0"
         transform="matrix(0.8,0,0,0.8,10,0)"
         style="fill:#ffffff;fill-opacity:1;fill-rule:evenodd;stroke:#ffffff;stroke-width:1.00000003pt;stroke-opacity:1"
         d="M 0,0 5,-5 -12.5,0 5,5 Z"
         id="path15940" />
    </marker>
    <marker
       inkscape:isstock="true"
       style="overflow:visible"
       id="marker12931"
       refX="0"
       refY="0"
       orient="auto"
       inkscape:stockid="Arrow1Lstart">
      <path
         inkscape:connector-curvature="0"
         transform="matrix(0.8,0,0,0.8,10,0)"
         style="fill:#93a7ac;fill-opacity:1;fill-rule:evenodd;stroke:#f2f8f8;stroke-width:1.00000003pt;stroke-opacity:1"
         d="M 0,0 5,-5 -12.5,0 5,5 Z"
         id="path12929" />
    </marker>
    <marker
       inkscape:stockid="TriangleInL"
       orient="auto"
       refY="0.0"
       refX="0.0"
       id="marker6529"
       style="overflow:visible"
       inkscape:isstock="true">
      <path
         id="path6527"
         d="M 5.77,0.0 L -2.88,5.0 L -2.88,-5.0 L 5.77,0.0 z "
         style="fill-rule:evenodd;stroke:#000000;stroke-width:1pt;stroke-opacity:1;fill:#000000;fill-opacity:1"
         transform="scale(-0.8)" />
    </marker>
    <marker
       inkscape:isstock="true"
       style="overflow:visible"
       id="marker5721"
       refX="0.0"
       refY="0.0"
       orient="auto"
       inkscape:stockid="TriangleInM">
      <path
         transform="scale(-0.4)"
         style="fill-rule:evenodd;stroke:#000000;stroke-width:1pt;stroke-opacity:1;fill:#000000;fill-opacity:1"
         d="M 5.77,0.0 L -2.88,5.0 L -2.88,-5.0 L 5.77,0.0 z "
         id="path5719" />
    </marker>
    <marker
       inkscape:isstock="true"
       style="overflow:visible"
       id="TriangleInM"
       refX="0.0"
       refY="0.0"
       orient="auto"
       inkscape:stockid="TriangleInM">
      <path
         transform="scale(-0.4)"
         style="fill-rule:evenodd;stroke:#000000;stroke-width:1pt;stroke-opacity:1;fill:#000000;fill-opacity:1"
         d="M 5.77,0.0 L -2.88,5.0 L -2.88,-5.0 L 5.77,0.0 z "
         id="path4708" />
    </marker>
    <marker
       inkscape:isstock="true"
       style="overflow:visible;"
       id="Arrow1Mend"
       refX="0.0"
       refY="0.0"
       orient="auto"
       inkscape:stockid="Arrow1Mend">
      <path
         transform="scale(0.4) rotate(180) translate(10,0)"
         style="fill-rule:evenodd;stroke:#000000;stroke-width:1pt;stroke-opacity:1;fill:#000000;fill-opacity:1"
         d="M 0.0,0.0 L 5.0,-5.0 L -12.5,0.0 L 5.0,5.0 L 0.0,0.0 z "
         id="path4581" />
    </marker>
    <marker
       inkscape:isstock="true"
       style="overflow:visible"
       id="marker4835"
       refX="0.0"
       refY="0.0"
       orient="auto"
       inkscape:stockid="Arrow1Lstart">
      <path
         transform="scale(0.8) translate(12.5,0)"
         style="fill-rule:evenodd;stroke:#000000;stroke-width:1pt;stroke-opacity:1;fill:#000000;fill-opacity:1"
         d="M 0.0,0.0 L 5.0,-5.0 L -12.5,0.0 L 5.0,5.0 L 0.0,0.0 z "
         id="path4572" />
    </marker>
    <marker
       inkscape:stockid="EmptyDiamondS"
       orient="auto"
       refY="0"
       refX="0"
       id="marker8569"
       style="overflow:visible"
       inkscape:isstock="true">
      <path
         inkscape:connector-curvature="0"
         id="path8567"
         d="M 0,-7.0710768 -7.0710894,0 0,7.0710589 7.0710462,0 Z"
         style="fill:#ffffff;fill-rule:evenodd;stroke:#000000;stroke-width:1.00000003pt;stroke-opacity:1"
         transform="scale(0.2)" />
    </marker>
    <marker
       inkscape:stockid="Arrow2Sstart"
       orient="auto"
       refY="0"
       refX="0"
       id="marker8439"
       style="overflow:visible"
       inkscape:isstock="true">
      <path
         inkscape:connector-curvature="0"
         id="path8437"
         style="fill:#000000;fill-opacity:1;fill-rule:evenodd;stroke:#000000;stroke-width:0.625;stroke-linejoin:round;stroke-opacity:1"
         d="M 8.7185878,4.0337352 -2.2072895,0.01601326 8.7185884,-4.0017078 c -1.7454984,2.3720609 -1.7354408,5.6174519 -6e-7,8.035443 z"
         transform="matrix(0.3,0,0,0.3,-0.69,0)" />
    </marker>
    <marker
       inkscape:isstock="true"
       style="overflow:visible"
       id="Tail"
       refX="0"
       refY="0"
       orient="auto"
       inkscape:stockid="Tail">
      <g
         style="fill:#ff7f2a;fill-opacity:1;stroke:#ff7f2a;stroke-opacity:1"
         transform="scale(-1.2)"
         id="g5711">
        <path
           inkscape:connector-curvature="0"
           style="fill:#ff7f2a;fill-opacity:1;fill-rule:evenodd;stroke:#ff7f2a;stroke-width:0.80000001;stroke-linecap:round;stroke-opacity:1"
           d="M -3.8048674,-3.9585227 0.54352094,0"
           id="path5699" />
        <path
           inkscape:connector-curvature="0"
           style="fill:#ff7f2a;fill-opacity:1;fill-rule:evenodd;stroke:#ff7f2a;stroke-width:0.80000001;stroke-linecap:round;stroke-opacity:1"
           d="M -1.2866832,-3.9585227 3.0617053,0"
           id="path5701" />
        <path
           inkscape:connector-curvature="0"
           style="fill:#ff7f2a;fill-opacity:1;fill-rule:evenodd;stroke:#ff7f2a;stroke-width:0.80000001;stroke-linecap:round;stroke-opacity:1"
           d="M 1.3053582,-3.9585227 5.6537466,0"
           id="path5703" />
        <path
           inkscape:connector-curvature="0"
           style="fill:#ff7f2a;fill-opacity:1;fill-rule:evenodd;stroke:#ff7f2a;stroke-width:0.80000001;stroke-linecap:round;stroke-opacity:1"
           d="M -3.8048674,4.1775838 0.54352094,0.21974226"
           id="path5705" />
        <path
           inkscape:connector-curvature="0"
           style="fill:#ff7f2a;fill-opacity:1;fill-rule:evenodd;stroke:#ff7f2a;stroke-width:0.80000001;stroke-linecap:round;stroke-opacity:1"
           d="M -1.2866832,4.1775838 3.0617053,0.21974226"
           id="path5707" />
        <path
           inkscape:connector-curvature="0"
           style="fill:#ff7f2a;fill-opacity:1;fill-rule:evenodd;stroke:#ff7f2a;stroke-width:0.80000001;stroke-linecap:round;stroke-opacity:1"
           d="M 1.3053582,4.1775838 5.6537466,0.21974226"
           id="path5709" />
      </g>
    </marker>
    <marker
       inkscape:isstock="true"
       style="overflow:visible"
       id="marker7903"
       refX="0"
       refY="0"
       orient="auto"
       inkscape:stockid="Arrow2Mstart">
      <path
         inkscape:connector-curvature="0"
         transform="scale(0.6)"
         d="M 8.7185878,4.0337352 -2.2072895,0.01601326 8.7185884,-4.0017078 c -1.7454984,2.3720609 -1.7354408,5.6174519 -6e-7,8.035443 z"
         style="fill:#ff7f2a;fill-opacity:1;fill-rule:evenodd;stroke:#ff7f2a;stroke-width:0.625;stroke-linejoin:round;stroke-opacity:1"
         id="path7901" />
    </marker>
    <marker
       inkscape:isstock="true"
       style="overflow:visible"
       id="Arrow2Lend"
       refX="0"
       refY="0"
       orient="auto"
       inkscape:stockid="Arrow2Lend">
      <path
         inkscape:connector-curvature="0"
         transform="matrix(-1.1,0,0,-1.1,-1.1,0)"
         d="M 8.7185878,4.0337352 -2.2072895,0.01601326 8.7185884,-4.0017078 c -1.7454984,2.3720609 -1.7354408,5.6174519 -6e-7,8.035443 z"
         style="fill:#ff7f2a;fill-opacity:1;fill-rule:evenodd;stroke:#ff7f2a;stroke-width:0.625;stroke-linejoin:round;stroke-opacity:1"
         id="path5684" />
    </marker>
    <marker
       inkscape:isstock="true"
       style="overflow:visible"
       id="Arrow1Sstart"
       refX="0"
       refY="0"
       orient="auto"
       inkscape:stockid="Arrow1Sstart">
      <path
         inkscape:connector-curvature="0"
         transform="matrix(0.2,0,0,0.2,1.2,0)"
         style="fill:#ff7f2a;fill-opacity:1;fill-rule:evenodd;stroke:#ff7f2a;stroke-width:1.00000003pt;stroke-opacity:1"
         d="M 0,0 5,-5 -12.5,0 5,5 Z"
         id="path5675" />
    </marker>
    <marker
       inkscape:isstock="true"
       style="overflow:visible"
       id="Arrow1Send"
       refX="0"
       refY="0"
       orient="auto"
       inkscape:stockid="Arrow1Send">
      <path
         inkscape:connector-curvature="0"
         transform="matrix(-0.2,0,0,-0.2,-1.2,0)"
         style="fill:#ff7f2a;fill-opacity:1;fill-rule:evenodd;stroke:#ff7f2a;stroke-width:1.00000003pt;stroke-opacity:1"
         d="M 0,0 5,-5 -12.5,0 5,5 Z"
         id="path5678" />
    </marker>
    <marker
       inkscape:isstock="true"
       style="overflow:visible"
       id="marker7515"
       refX="0"
       refY="0"
       orient="auto"
       inkscape:stockid="Arrow2Mstart">
      <path
         inkscape:connector-curvature="0"
         transform="scale(0.6)"
         d="M 8.7185878,4.0337352 -2.2072895,0.01601326 8.7185884,-4.0017078 c -1.7454984,2.3720609 -1.7354408,5.6174519 -6e-7,8.035443 z"
         style="fill:#ff7f2a;fill-opacity:1;fill-rule:evenodd;stroke:#ff7f2a;stroke-width:0.625;stroke-linejoin:round;stroke-opacity:1"
         id="path7513" />
    </marker>
    <marker
       inkscape:isstock="true"
       style="overflow:visible"
       id="Arrow2Send"
       refX="0"
       refY="0"
       orient="auto"
       inkscape:stockid="Arrow2Send">
      <path
         inkscape:connector-curvature="0"
         transform="matrix(-0.3,0,0,-0.3,0.69,0)"
         d="M 8.7185878,4.0337352 -2.2072895,0.01601326 8.7185884,-4.0017078 c -1.7454984,2.3720609 -1.7354408,5.6174519 -6e-7,8.035443 z"
         style="fill:#ff7f2a;fill-opacity:1;fill-rule:evenodd;stroke:#ff7f2a;stroke-width:0.625;stroke-linejoin:round;stroke-opacity:1"
         id="path5696" />
    </marker>
    <marker
       inkscape:isstock="true"
       style="overflow:visible"
       id="marker7383"
       refX="0"
       refY="0"
       orient="auto"
       inkscape:stockid="Arrow1Mstart">
      <path
         inkscape:connector-curvature="0"
         transform="matrix(0.4,0,0,0.4,4,0)"
         style="fill:#ff7f2a;fill-opacity:1;fill-rule:evenodd;stroke:#ff7f2a;stroke-width:1.00000003pt;stroke-opacity:1"
         d="M 0,0 5,-5 -12.5,0 5,5 Z"
         id="path7381" />
    </marker>
    <marker
       inkscape:isstock="true"
       style="overflow:visible"
       id="Arrow1Mstart"
       refX="0"
       refY="0"
       orient="auto"
       inkscape:stockid="Arrow1Mstart">
      <path
         inkscape:connector-curvature="0"
         transform="matrix(0.4,0,0,0.4,4,0)"
         style="fill:#ff7f2a;fill-opacity:1;fill-rule:evenodd;stroke:#ff7f2a;stroke-width:1.00000003pt;stroke-opacity:1"
         d="M 0,0 5,-5 -12.5,0 5,5 Z"
         id="path5669" />
    </marker>
    <marker
       inkscape:isstock="true"
       style="overflow:visible"
       id="marker7275"
       refX="0"
       refY="0"
       orient="auto"
       inkscape:stockid="Arrow1Lend">
      <path
         inkscape:connector-curvature="0"
         transform="matrix(-0.8,0,0,-0.8,-10,0)"
         style="fill:#ff7f2a;fill-opacity:1;fill-rule:evenodd;stroke:#ff7f2a;stroke-width:1.00000003pt;stroke-opacity:1"
         d="M 0,0 5,-5 -12.5,0 5,5 Z"
         id="path7273" />
    </marker>
    <marker
       inkscape:isstock="true"
       style="overflow:visible"
       id="Arrow2Mstart"
       refX="0"
       refY="0"
       orient="auto"
       inkscape:stockid="Arrow2Mstart">
      <path
         inkscape:connector-curvature="0"
         transform="scale(0.6)"
         d="M 8.7185878,4.0337352 -2.2072895,0.01601326 8.7185884,-4.0017078 c -1.7454984,2.3720609 -1.7354408,5.6174519 -6e-7,8.035443 z"
         style="fill:#000000;fill-opacity:1;fill-rule:evenodd;stroke:#000000;stroke-width:0.625;stroke-linejoin:round;stroke-opacity:1"
         id="path5687" />
    </marker>
    <marker
       inkscape:isstock="true"
       style="overflow:visible"
       id="Arrow2Mend"
       refX="0"
       refY="0"
       orient="auto"
       inkscape:stockid="Arrow2Mend">
      <path
         inkscape:connector-curvature="0"
         transform="scale(-0.6)"
         d="M 8.7185878,4.0337352 -2.2072895,0.01601326 8.7185884,-4.0017078 c -1.7454984,2.3720609 -1.7354408,5.6174519 -6e-7,8.035443 z"
         style="fill:#4b3145;fill-opacity:0.5;fill-rule:evenodd;stroke:#4b3145;stroke-width:0.625;stroke-linejoin:round;stroke-opacity:0.5"
         id="path5690" />
    </marker>
    <marker
       inkscape:isstock="true"
       style="overflow:visible"
       id="Arrow1Lend"
       refX="0"
       refY="0"
       orient="auto"
       inkscape:stockid="Arrow1Lend">
      <path
         inkscape:connector-curvature="0"
         transform="matrix(-0.8,0,0,-0.8,-10,0)"
         style="fill:#4b3145;fill-opacity:0.5;fill-rule:evenodd;stroke:#4b3145;stroke-width:1.00000003pt;stroke-opacity:0.5"
         d="M 0,0 5,-5 -12.5,0 5,5 Z"
         id="path5666" />
    </marker>
    <linearGradient
       gradientTransform="translate(0.46486038,-1.5495344)"
       gradientUnits="userSpaceOnUse"
       y2="2.4516556"
       x2="2.8173351"
       y1="6.1001053"
       x1="6.7052579"
       id="linearGradient17691"
       xlink:href="#linearGradient17667"
       inkscape:collect="always" />
    <linearGradient
       gradientUnits="userSpaceOnUse"
       y2="8.0682354"
       x2="8.0084705"
       y1="0.41835293"
       x1="0.4382745"
       id="linearGradient4943"
       xlink:href="#linearGradient4941"
       inkscape:collect="always" />
    <linearGradient
       id="linearGradient4365">
      <stop
         id="stop4367"
         offset="0"
         style="stop-color:#000000;stop-opacity:0.80000001;" />
      <stop
         id="stop4369"
         offset="1"
         style="stop-color:#000000;stop-opacity:0.15384616;" />
    </linearGradient>
    <linearGradient
       id="linearGradient3829">
      <stop
         style="stop-color:#ffffff;stop-opacity:0.60000002;"
         offset="0"
         id="stop3831" />
      <stop
         style="stop-color:#ffffff;stop-opacity:0.20784314;"
         offset="1"
         id="stop3833" />
    </linearGradient>
    <linearGradient
       id="linearGradient3820">
      <stop
         style="stop-color:#dcdcdc;stop-opacity:1;"
         offset="0"
         id="stop3823" />
      <stop
         style="stop-color:#545454;stop-opacity:1;"
         offset="1"
         id="stop3825" />
    </linearGradient>
    <linearGradient
       id="linearGradient_SkyBlue">
      <stop
         id="stop3832"
         offset="0"
         style="stop-color:#e7e7e7;stop-opacity:1;" />
      <stop
         id="stop3834"
         offset="1"
         style="stop-color:#c0c0c0;stop-opacity:1;" />
    </linearGradient>
    <linearGradient
       inkscape:collect="always"
       xlink:href="#linearGradient3829"
       id="linearGradient4284"
       gradientUnits="userSpaceOnUse"
       x1="1"
       y1="22"
       x2="15"
       y2="22" />
    <linearGradient
       inkscape:collect="always"
       xlink:href="#linearGradient3820"
       id="linearGradient4288"
       gradientUnits="userSpaceOnUse"
       x1="0.49977225"
       y1="12.984375"
       x2="15.500228"
       y2="12.984375" />
    <linearGradient
       inkscape:collect="always"
       xlink:href="#linearGradient3820"
       id="linearGradient4392"
       gradientUnits="userSpaceOnUse"
       x1="-29.5"
       y1="25.890625"
       x2="-8.5"
       y2="25.890625" />
    <linearGradient
       inkscape:collect="always"
       xlink:href="#linearGradient3829"
       id="linearGradient4394"
       gradientUnits="userSpaceOnUse"
       x1="-28.96875"
       y1="30"
       x2="-9.03125"
       y2="30" />
    <linearGradient
       inkscape:collect="always"
       xlink:href="#linearGradient4365"
       id="linearGradient4396"
       gradientUnits="userSpaceOnUse"
       x1="-28"
       y1="20.96875"
       x2="-19"
       y2="21" />
    <linearGradient
       inkscape:collect="always"
       xlink:href="#linearGradient3820"
       id="linearGradient4597"
       gradientUnits="userSpaceOnUse"
       gradientTransform="matrix(1.9333311,0,0,1.8571429,-69.466666,6.7143)"
       x1="0.5"
       y1="12"
       x2="15.5"
       y2="12" />
    <linearGradient
       inkscape:collect="always"
       xlink:href="#linearGradient3829"
       id="linearGradient4599"
       gradientUnits="userSpaceOnUse"
       x1="-68.03125"
       y1="24"
       x2="-39.96875"
       y2="24" />
    <linearGradient
       inkscape:collect="always"
       xlink:href="#linearGradient4365"
       id="linearGradient4601"
       gradientUnits="userSpaceOnUse"
       x1="-69"
       y1="29"
       x2="-54"
       y2="29" />
    <clipPath
       clipPathUnits="userSpaceOnUse"
       id="clipPath6054">
      <rect
         style="fill:#a40000;fill-opacity:1;stroke:none;display:inline"
         id="rect6056"
         width="48"
         height="22"
         x="-126"
         y="-6"
         transform="matrix(0.9545455,0,0,0.89256196,-4.6363639,-1.3719273)" />
    </clipPath>
    <linearGradient
       id="linearGradient3579">
      <stop
         id="stop3581"
         stop-color="#fff"
         offset="0" />
      <stop
         id="stop3583"
         stop-color="#fff"
         stop-opacity="0"
         offset="1" />
    </linearGradient>
    <linearGradient
       id="linearGradient10460"
       y2="13.945"
       gradientUnits="userSpaceOnUse"
       y1="81.056"
       gradientTransform="scale(0.88267,1.1329)"
       x2="18.904"
       x1="80.239">
      <stop
         id="stop8159"
         offset="0" />
      <stop
         id="stop8161"
         stop-color="#606060"
         offset="1" />
    </linearGradient>
    <linearGradient
       id="linearGradient10462"
       y2="111.34"
       xlink:href="#linearGradient3579"
       gradientUnits="userSpaceOnUse"
       y1="52.714"
       gradientTransform="matrix(1.2691,-0.13167,0.080881,0.77957,0,0)"
       x2="15.224"
       x1="-19.04" />
    <linearGradient
       id="linearGradient10464"
       y2="37.164"
       xlink:href="#linearGradient3579"
       gradientUnits="userSpaceOnUse"
       y1="-6.6212"
       gradientTransform="matrix(0.60451,-0.062719,0.1698,1.6366,0,0)"
       x2="97.343"
       x1="71.088" />
    <linearGradient
       id="linearGradient10466"
       y2="20.793"
       xlink:href="#linearGradient3579"
       gradientUnits="userSpaceOnUse"
       y1="4.4251"
       gradientTransform="scale(0.5831,1.715)"
       x2="156.68"
       x1="95.225" />
    <filter
       id="filter3607"
       inkscape:label="Drop Shadow"
       style="color-interpolation-filters:sRGB;">
      <feFlood
         id="feFlood3597"
         result="flood"
         flood-color="rgb(0,0,0)"
         flood-opacity="0.498039" />
      <feComposite
         id="feComposite3599"
         result="composite1"
         operator="in"
         in2="SourceGraphic"
         in="flood" />
      <feGaussianBlur
         id="feGaussianBlur3601"
         result="blur"
         stdDeviation="5"
         in="composite1" />
      <feOffset
         id="feOffset3603"
         result="offset"
         dy="7"
         dx="3.90625" />
      <feComposite
         id="feComposite3605"
         result="composite2"
         operator="over"
         in2="offset"
         in="SourceGraphic" />
    </filter>
    <filter
       id="filter3619"
       inkscape:label="Drop Shadow"
       style="color-interpolation-filters:sRGB;">
      <feFlood
         id="feFlood3609"
         result="flood"
         flood-color="rgb(0,0,0)"
         flood-opacity="0.498039" />
      <feComposite
         id="feComposite3611"
         result="composite1"
         operator="in"
         in2="SourceGraphic"
         in="flood" />
      <feGaussianBlur
         id="feGaussianBlur3613"
         result="blur"
         stdDeviation="5"
         in="composite1" />
      <feOffset
         id="feOffset3615"
         result="offset"
         dy="7"
         dx="3.90625" />
      <feComposite
         id="feComposite3617"
         result="composite2"
         operator="over"
         in2="offset"
         in="SourceGraphic" />
    </filter>
    <filter
       id="filter3667"
       inkscape:label="Drop Shadow"
       style="color-interpolation-filters:sRGB;">
      <feFlood
         id="feFlood3657"
         result="flood"
         flood-color="rgb(0,0,0)"
         flood-opacity="0.498039" />
      <feComposite
         id="feComposite3659"
         result="composite1"
         operator="in"
         in2="SourceGraphic"
         in="flood" />
      <feGaussianBlur
         id="feGaussianBlur3661"
         result="blur"
         stdDeviation="5"
         in="composite1" />
      <feOffset
         id="feOffset3663"
         result="offset"
         dy="7"
         dx="3.9" />
      <feComposite
         id="feComposite3665"
         result="composite2"
         operator="over"
         in2="offset"
         in="SourceGraphic" />
    </filter>
    <filter
       height="1.2240684"
       y="-0.11203421"
       width="1.0563789"
       x="-0.028189427"
       id="filter4517"
       style="color-interpolation-filters:sRGB"
       inkscape:collect="always">
      <feGaussianBlur
         id="feGaussianBlur4519"
         stdDeviation="0.079009725"
         inkscape:collect="always" />
    </filter>
  </defs>
  <sodipodi:namedview
     inkscape:document-rotation="0"
     guidetolerance="3"
     objecttolerance="3"
     inkscape:window-maximized="1"
     inkscape:window-y="-8"
     inkscape:window-x="-8"
     inkscape:window-height="1017"
     inkscape:window-width="1920"
     units="px"
     showgrid="false"
     inkscape:current-layer="layer2"
     inkscape:document-units="mm"
     inkscape:cy="38.241937"
     inkscape:cx="-50.940947"
     inkscape:zoom="6.4650682"
     inkscape:pageshadow="2"
     inkscape:pageopacity="0.0"
     borderopacity="1.0"
     bordercolor="#666666"
     pagecolor="#ffffff"
     id="base" />
  <metadata
     id="metadata5">
    <rdf:RDF>
      <cc:Work
         rdf:about="">
        <dc:format>image/svg+xml</dc:format>
        <dc:type
           rdf:resource="http://purl.org/dc/dcmitype/StillImage" />
        <dc:title></dc:title>
      </cc:Work>
    </rdf:RDF>
  </metadata>
  <g
     sodipodi:insensitive="true"
     transform="translate(0,-288.53332)"
     id="layer1"
     inkscape:groupmode="layer"
     inkscape:label="Calque 1">
    <rect
       ry="1.3251487"
       y="288.77356"
       x="0.41307384"
       height="8.0915298"
       width="7.9386277"
       id="rect4935-0"
       style="opacity:1;fill:#333333;fill-opacity:0.70408164;stroke:none;stroke-width:0.02094643;stroke-miterlimit:4;stroke-dasharray:none;stroke-opacity:1" />
    <rect
       rx="1.1851538"
       ry="1.2702633"
       y="288.79077"
       x="0.24946646"
       height="7.9539385"
       width="7.9620771"
       id="rect10434"
       style="opacity:1;fill:none;fill-opacity:1;stroke:#93a7ac;stroke-width:0.10167526;stroke-linecap:square;stroke-linejoin:miter;stroke-miterlimit:4;stroke-dasharray:none;stroke-dashoffset:0;stroke-opacity:1;paint-order:markers stroke fill" />
    <g
       transform="translate(27.970238,19.465774)"
       id="g4980">
      <g
         id="g4605"
         transform="matrix(0.05893305,0,0,0.05893305,50.945792,279.8257)">
        <g
           id="g4548"
           transform="matrix(0.38356159,0,0,0.37671228,55.890413,73.356173)">
          <g
             id="unknown-2">
            <path
               id="path4545"
               d="M 255,357 H 382.5 V 318.75 H 255 Z M 255,0 C 114.75,0 0,114.75 0,255 0,395.25 114.75,510 255,510 395.25,510 510,395.25 510,255 510,114.75 395.25,0 255,0 Z M 102,153 h 51 v -51 h 38.25 v 51 h 51 v 38.25 h -51 v 51 H 153 v -51 h -51 z m 153,306 c -56.1,0 -107.1,-22.95 -145.35,-58.65 l 290.7,-290.7 C 436.05,147.9 459,198.9 459,255 459,367.2 367.2,459 255,459 Z"
               inkscape:connector-curvature="0" />
          </g>
        </g>
        <g
           id="g4550" />
        <g
           id="g4552" />
        <g
           id="g4554" />
        <g
           id="g4556" />
        <g
           id="g4558" />
        <g
           id="g4560" />
        <g
           id="g4562" />
        <g
           id="g4564" />
        <g
           id="g4566" />
        <g
           id="g4568" />
        <g
           id="g4570" />
        <g
           id="g4572" />
        <g
           id="g4574" />
        <g
           id="g4576" />
        <g
           id="g4578" />
      </g>
      <g
         transform="matrix(0.05410247,0,0,0.05410247,51.499257,280.62091)"
         id="g4679"
         style="fill:#b7bec8">
        <g
           transform="matrix(0.38356159,0,0,0.37671228,55.890413,73.356173)"
           id="g4647"
           style="fill:#b7bec8">
          <g
             id="g4645"
             style="fill:#b7bec8">
            <path
               inkscape:connector-curvature="0"
               d="M 255,357 H 382.5 V 318.75 H 255 Z M 255,0 C 114.75,0 0,114.75 0,255 0,395.25 114.75,510 255,510 395.25,510 510,395.25 510,255 510,114.75 395.25,0 255,0 Z M 102,153 h 51 v -51 h 38.25 v 51 h 51 v 38.25 h -51 v 51 H 153 v -51 h -51 z m 153,306 c -56.1,0 -107.1,-22.95 -145.35,-58.65 l 290.7,-290.7 C 436.05,147.9 459,198.9 459,255 459,367.2 367.2,459 255,459 Z"
               id="path4643"
               style="fill:#b7bec8" />
          </g>
        </g>
        <g
           id="g4649"
           style="fill:#b7bec8" />
        <g
           id="g4651"
           style="fill:#b7bec8" />
        <g
           id="g4653"
           style="fill:#b7bec8" />
        <g
           id="g4655"
           style="fill:#b7bec8" />
        <g
           id="g4657"
           style="fill:#b7bec8" />
        <g
           id="g4659"
           style="fill:#b7bec8" />
        <g
           id="g4661"
           style="fill:#b7bec8" />
        <g
           id="g4663"
           style="fill:#b7bec8" />
        <g
           id="g4665"
           style="fill:#b7bec8" />
        <g
           id="g4667"
           style="fill:#b7bec8" />
        <g
           id="g4669"
           style="fill:#b7bec8" />
        <g
           id="g4671"
           style="fill:#b7bec8" />
        <g
           id="g4673"
           style="fill:#b7bec8" />
        <g
           id="g4675"
           style="fill:#b7bec8" />
        <g
           id="g4677"
           style="fill:#b7bec8" />
      </g>
    </g>
  </g>
  <g
     inkscape:label="Calque 3"
     id="layer3"
     inkscape:groupmode="layer">
    <rect
       rx="1.1481918"
       ry="1.1054827"
       y="0.31464145"
       x="0.31465027"
       height="7.8373718"
       width="7.8373661"
       id="rect4935"
       style="opacity:1;fill:url(#linearGradient4943);fill-opacity:1;stroke:#333333;stroke-width:0.021;stroke-miterlimit:4;stroke-dasharray:none;stroke-opacity:1" />
    <g
       transform="matrix(0.02441356,0,0,0.02264783,-9.8594873,-13.107896)"
       id="g3052">
      <g
         transform="translate(431.85,144.2)"
         id="g3028">
        <rect
           x="48"
           y="562.85999"
           width="42"
           height="125"
           ry="12.956"
           style="color:#000000"
           id="rect3008" />
        <path
           transform="matrix(1,0,0,0.94444,0,37.576)"
           style="color:#000000"
           d="m 72,622.36 c 0,29.823 -10.521,54 -23.5,54 -12.979,0 -23.5,-24.177 -23.5,-54 0,-29.823 10.521,-54 23.5,-54 12.979,0 23.5,24.177 23.5,54 z"
           id="path3010"
           inkscape:connector-curvature="0" />
      </g>
      <g
         id="g3040">
        <path
           transform="matrix(1.1184,0,0,1,-52.592,7)"
           style="color:#000000"
           d="m 461,759.86 c 0,5.2467 -4.2533,9.5 -9.5,9.5 -5.2467,0 -9.5,-4.2533 -9.5,-9.5 0,-5.2467 4.2533,-9.5 9.5,-9.5 5.2467,0 9.5,4.2533 9.5,9.5 z"
           id="path3032"
           inkscape:connector-curvature="0" />
        <g
           id="g3036">
          <path
             d="m 581,603.38 c -77.872,0 -141,63.128 -141,141 0,7.8331 0.64678,15.515 1.875,23 h 21.344 c -1.45,-7.45 -2.22,-15.14 -2.22,-23 0,-66.274 53.726,-120 120,-120 66.274,0 120,53.726 120,120 0,7.8662 -0.77385,15.556 -2.2188,23 h 21.344 c 1.2282,-7.4854 1.875,-15.167 1.875,-23 0,-77.872 -63.128,-141 -141,-141 z"
             style="color:#000000"
             id="path3018"
             inkscape:connector-curvature="0" />
          <path
             transform="matrix(1.1053,0,0,1,210.72,6)"
             style="color:#000000"
             d="m 461,759.86 c 0,5.2467 -4.2533,9.5 -9.5,9.5 -5.2467,0 -9.5,-4.2533 -9.5,-9.5 0,-5.2467 4.2533,-9.5 9.5,-9.5 5.2467,0 9.5,4.2533 9.5,9.5 z"
             id="path3034"
             inkscape:connector-curvature="0" />
        </g>
      </g>
      <g
         transform="matrix(-1,0,0,1,730,144.2)"
         id="g3046">
        <rect
           x="48"
           y="562.85999"
           width="42"
           height="125"
           ry="12.956"
           style="color:#000000"
           id="rect3048" />
        <path
           transform="matrix(1,0,0,0.94444,0,37.576)"
           style="color:#000000"
           d="m 72,622.36 c 0,29.823 -10.521,54 -23.5,54 -12.979,0 -23.5,-24.177 -23.5,-54 0,-29.823 10.521,-54 23.5,-54 12.979,0 23.5,24.177 23.5,54 z"
           id="path3050"
           inkscape:connector-curvature="0" />
      </g>
    </g>
    <g
       transform="matrix(0.15844688,0,0,0.14173995,3.6616416,1.8718662)"
       id="g4674">
      <g
         id="g3153"
         transform="matrix(0,0.11218598,0.08224308,0,-52.046544,-40.343523)">
        <path
           inkscape:connector-curvature="0"
           id="path3155"
           style="color:#000000"
           d="m 518.07,714.46 c -30.996,0 -56.804,22.188 -62.469,51.531 h 4.25 c 6.5042,-21.754 30.101,-37.875 58.219,-37.875 28.118,0 51.715,16.121 58.219,37.875 h 3.9062 c 0.12874,0 0.24712,0.0278 0.375,0.0313 -5.6586,-29.358 -31.494,-51.562 -62.5,-51.562 z" />
        <path
           inkscape:connector-curvature="0"
           id="path3157"
           style="color:#000000"
           d="m 518.07,743.02 c -19.842,0 -36.364,14.204 -39.99,32.988 h 2.7207 c 4.1638,-13.926 19.269,-24.246 37.269,-24.246 18,0 33.106,10.32 37.269,24.246 h 2.5006 c 0.0824,0 0.1582,0.0178 0.24006,0.02 -3.6224,-18.794 -20.161,-33.008 -40.01,-33.008 z" />
        <path
           inkscape:connector-curvature="0"
           id="path3159"
           style="color:#000000"
           d="m 518.08,759.52 c -9.921,0 -18.182,7.1019 -19.995,16.494 h 1.3603 c 2.0819,-6.9629 9.6347,-12.123 18.635,-12.123 9,0 16.553,5.1601 18.635,12.123 h 1.2503 c 0.0412,0 0.0791,0.009 0.12003,0.01 -1.8112,-9.397 -10.081,-16.504 -20.005,-16.504 z" />
      </g>
      <g
         id="g3169"
         transform="matrix(0,0.11218598,-0.08224308,0,60.448996,-40.343523)">
        <path
           inkscape:connector-curvature="0"
           id="path3171"
           style="color:#000000"
           d="m 518.07,714.46 c -30.996,0 -56.804,22.188 -62.469,51.531 h 4.25 c 6.5042,-21.754 30.101,-37.875 58.219,-37.875 28.118,0 51.715,16.121 58.219,37.875 h 3.9062 c 0.12874,0 0.24712,0.0278 0.375,0.0313 -5.6586,-29.358 -31.494,-51.562 -62.5,-51.562 z" />
        <path
           inkscape:connector-curvature="0"
           id="path3173"
           style="color:#000000"
           d="m 518.07,743.02 c -19.842,0 -36.364,14.204 -39.99,32.988 h 2.7207 c 4.1638,-13.926 19.269,-24.246 37.269,-24.246 18,0 33.106,10.32 37.269,24.246 h 2.5006 c 0.0824,0 0.1582,0.0178 0.24006,0.02 -3.6224,-18.794 -20.161,-33.008 -40.01,-33.008 z" />
        <path
           inkscape:connector-curvature="0"
           id="path3175"
           style="color:#000000"
           d="m 518.08,759.52 c -9.921,0 -18.182,7.1019 -19.995,16.494 h 1.3603 c 2.0819,-6.9629 9.6347,-12.123 18.635,-12.123 9,0 16.553,5.1601 18.635,12.123 h 1.2503 c 0.0412,0 0.0791,0.009 0.12003,0.01 -1.8112,-9.397 -10.081,-16.504 -20.005,-16.504 z" />
      </g>
    </g>
  </g>
  <g
     inkscape:label="Calque 2"
     id="layer2"
     inkscape:groupmode="layer">
    <text
       xml:space="preserve"
       style="font-style:normal;font-variant:normal;font-weight:normal;font-stretch:normal;font-size:2.10778px;line-height:1.25;font-family:Vision;-inkscape-font-specification:'Vision, Normal';font-variant-ligatures:normal;font-variant-caps:normal;font-variant-numeric:normal;text-align:start;letter-spacing:0px;word-spacing:0px;writing-mode:lr-tb;text-anchor:start;fill:#000000;fill-opacity:1;stroke:none;stroke-width:0.0247006;filter:url(#filter4517)"
       x="0.38719168"
       y="7.771595"
       id="text3879"
       transform="matrix(1.0698877,0,0,0.93467753,1.268677,0.20462532)"><tspan
         sodipodi:role="line"
         id="tspan3877"
         x="0.38719168"
         y="7.771595"
         style="stroke-width:0.0247006">BASS</tspan></text>
    <text
       transform="scale(1.0698877,0.93467753)"
       id="text4303"
       y="7.8614807"
       x="1.4220114"
       style="font-style:normal;font-variant:normal;font-weight:normal;font-stretch:normal;font-size:2.10778px;line-height:1.25;font-family:Vision;-inkscape-font-specification:'Vision, Normal';font-variant-ligatures:normal;font-variant-caps:normal;font-variant-numeric:normal;text-align:start;letter-spacing:0px;word-spacing:0px;writing-mode:lr-tb;text-anchor:start;fill:#000000;fill-opacity:1;stroke:none;stroke-width:0.0247006"
       xml:space="preserve"><tspan
         style="stroke-width:0.0247006"
         y="7.8614807"
         x="1.4220114"
         id="tspan4301"
         sodipodi:role="line">BASS</tspan></text>
  </g>
</svg>
