<?xml version="1.0" encoding="UTF-8" standalone="no"?>
<!-- Created with Inkscape (http://www.inkscape.org/) -->

<svg
   xmlns:dc="http://purl.org/dc/elements/1.1/"
   xmlns:cc="http://creativecommons.org/ns#"
   xmlns:rdf="http://www.w3.org/1999/02/22-rdf-syntax-ns#"
   xmlns:svg="http://www.w3.org/2000/svg"
   xmlns="http://www.w3.org/2000/svg"
   xmlns:sodipodi="http://sodipodi.sourceforge.net/DTD/sodipodi-0.dtd"
   xmlns:inkscape="http://www.inkscape.org/namespaces/inkscape"
   width="1024"
   height="768"
   viewBox="0 0 270.93333 203.20001"
   version="1.1"
   id="svg8377"
   inkscape:export-filename="H:\BeanzMaster\Documents\bzscenebg01.png"
   inkscape:export-xdpi="96"
   inkscape:export-ydpi="96"
   inkscape:version="0.92.3 (2405546, 2018-03-11)"
   sodipodi:docname="BZScene_Logo_02.svg">
  <defs
     id="defs8371" />
  <sodipodi:namedview
     id="base"
     pagecolor="#ffffff"
     bordercolor="#666666"
     borderopacity="1.0"
     inkscape:pageopacity="0.0"
     inkscape:pageshadow="2"
     inkscape:zoom="0.5"
     inkscape:cx="253.3607"
     inkscape:cy="595.05236"
     inkscape:document-units="mm"
     inkscape:current-layer="layer1"
     showgrid="false"
     units="px"
     inkscape:snap-global="false"
     inkscape:window-width="1920"
     inkscape:window-height="1017"
     inkscape:window-x="-8"
     inkscape:window-y="-8"
     inkscape:window-maximized="1" />
  <metadata
     id="metadata8374">
    <rdf:RDF>
      <cc:Work
         rdf:about="">
        <dc:format>image/svg+xml</dc:format>
        <dc:type
           rdf:resource="http://purl.org/dc/dcmitype/StillImage" />
        <dc:title></dc:title>
      </cc:Work>
    </rdf:RDF>
  </metadata>
  <g
     inkscape:label="Calque 1"
     inkscape:groupmode="layer"
     id="layer1"
     transform="translate(0,-93.799983)"
     sodipodi:insensitive="true"
     style="display:none">
    <rect
       style="opacity:1;fill:#000000;fill-opacity:1;stroke:#000000;stroke-width:2.30187488;stroke-linecap:round;stroke-linejoin:miter;stroke-miterlimit:4;stroke-dasharray:none;stroke-dashoffset:0;stroke-opacity:1;paint-order:stroke fill markers"
       id="rect9033"
       width="269.49701"
       height="201.08333"
       x="1.1339285"
       y="95.160698" />
  </g>
  <g
     inkscape:groupmode="layer"
     id="layer2"
     inkscape:label="Calque 2">
    <path
       style="fill:#cdde87;stroke:#cdde87;stroke-width:0.26458332px;stroke-linecap:butt;stroke-linejoin:miter;stroke-opacity:1"
       d="m 81.143347,118.61385 c -1.62914,53.06034 -1.62914,53.06034 -1.62914,53.06034"
       id="path9148"
       inkscape:connector-curvature="0" />
    <path
       style="fill:none;stroke:#e5ff80;stroke-width:0.32004043px;stroke-linecap:butt;stroke-linejoin:miter;stroke-opacity:1"
       d="m 103.74173,60.524351 c 131.12339,0.778798 131.12339,0.778798 131.12339,0.778798"
       id="path9182"
       inkscape:connector-curvature="0" />
    <path
       style="fill:none;stroke:#e5ff80;stroke-width:0.26587078px;stroke-linecap:butt;stroke-linejoin:miter;stroke-opacity:1"
       d="m 88.356909,26.335546 c -0.01064,27.124107 -0.01064,27.124107 -0.01064,27.124107"
       id="path9184"
       inkscape:connector-curvature="0" />
    <path
       style="fill:none;stroke:#e5ff80;stroke-width:0.40149248px;stroke-linecap:butt;stroke-linejoin:miter;stroke-opacity:1"
       d="m 47.45645,158.44241 176.51461,-0.37276"
       id="path9186"
       inkscape:connector-curvature="0" />
    <path
       style="fill:none;stroke:#e5ff80;stroke-width:0.25432408px;stroke-linecap:butt;stroke-linejoin:miter;stroke-opacity:1"
       d="m 88.230587,39.760496 c -54.829474,0 -54.829474,0 -54.829474,0"
       id="path9188"
       inkscape:connector-curvature="0" />
    <rect
       style="opacity:1;fill:none;fill-opacity:1;stroke:#e5ff80;stroke-width:0.16026749;stroke-linecap:round;stroke-linejoin:miter;stroke-miterlimit:4;stroke-dasharray:none;stroke-dashoffset:0;stroke-opacity:1;paint-order:stroke fill markers"
       id="rect9190"
       width="34.092907"
       height="14.465329"
       x="224.33986"
       y="152.01562" />
    <rect
       y="171.67418"
       x="63.639214"
       height="14.465329"
       width="34.092907"
       id="rect9192"
       style="opacity:1;fill:none;fill-opacity:1;stroke:#e5ff80;stroke-width:0.16026749;stroke-linecap:round;stroke-linejoin:miter;stroke-miterlimit:4;stroke-dasharray:none;stroke-dashoffset:0;stroke-opacity:1;paint-order:stroke fill markers" />
    <rect
       y="54.114712"
       x="235.23154"
       height="14.483072"
       width="26.929102"
       id="rect9194"
       style="opacity:1;fill:none;fill-opacity:1;stroke:#e5ff80;stroke-width:0.14252482;stroke-linecap:round;stroke-linejoin:miter;stroke-miterlimit:4;stroke-dasharray:none;stroke-dashoffset:0;stroke-opacity:1;paint-order:stroke fill markers" />
    <rect
       style="opacity:1;fill:none;fill-opacity:1;stroke:#e5ff80;stroke-width:0.14252482;stroke-linecap:round;stroke-linejoin:miter;stroke-miterlimit:4;stroke-dasharray:none;stroke-dashoffset:0;stroke-opacity:1;paint-order:stroke fill markers"
       id="rect9196"
       width="26.929102"
       height="14.483072"
       x="6.1779671"
       y="32.192093" />
    <rect
       style="opacity:1;fill:none;fill-opacity:1;stroke:#e5ff80;stroke-width:0.16026749;stroke-linecap:round;stroke-linejoin:miter;stroke-miterlimit:4;stroke-dasharray:none;stroke-dashoffset:0;stroke-opacity:1;paint-order:stroke fill markers"
       id="rect9198"
       width="34.092907"
       height="14.465329"
       x="70.820763"
       y="11.790261" />
    <text
       xml:space="preserve"
       style="font-style:normal;font-variant:normal;font-weight:normal;font-stretch:normal;font-size:19.14228058px;line-height:1.25;font-family:Vision;-inkscape-font-specification:'Vision, Normal';font-variant-ligatures:normal;font-variant-caps:normal;font-variant-numeric:normal;text-align:start;letter-spacing:0px;word-spacing:0px;writing-mode:lr-tb;text-anchor:start;fill:#000000;fill-opacity:1;stroke:none;stroke-width:0.22432359"
       x="63.771561"
       y="199.40228"
       id="text9244"
       transform="scale(1.0828254,0.92350994)"><tspan
         sodipodi:role="line"
         id="tspan9242"
         x="63.771561"
         y="199.40228"
         style="fill:#ffdd55;stroke-width:0.22432359">2D</tspan></text>
    <text
       transform="scale(1.0828254,0.92350993)"
       id="text9248"
       y="178.17688"
       x="212.40709"
       style="font-style:normal;font-variant:normal;font-weight:normal;font-stretch:normal;font-size:19.14228058px;line-height:1.25;font-family:Vision;-inkscape-font-specification:'Vision, Normal';font-variant-ligatures:normal;font-variant-caps:normal;font-variant-numeric:normal;text-align:start;letter-spacing:0px;word-spacing:0px;writing-mode:lr-tb;text-anchor:start;fill:#000000;fill-opacity:1;stroke:none;stroke-width:0.22432359"
       xml:space="preserve"><tspan
         style="fill:#ffdd55;stroke-width:0.22432359"
         y="178.17688"
         x="212.40709"
         id="tspan9246"
         sodipodi:role="line">3D</tspan></text>
    <text
       xml:space="preserve"
       style="font-style:normal;font-variant:normal;font-weight:normal;font-stretch:normal;font-size:30.61507607px;line-height:1.25;font-family:Vision;-inkscape-font-specification:'Vision, Normal';font-variant-ligatures:normal;font-variant-caps:normal;font-variant-numeric:normal;text-align:start;letter-spacing:0px;word-spacing:0px;writing-mode:lr-tb;text-anchor:start;fill:#000000;fill-opacity:1;stroke:none;stroke-width:0.3587704"
       x="264.58701"
       y="57.151756"
       id="text9252"
       transform="scale(0.8951032,1.1171896)"><tspan
         sodipodi:role="line"
         id="tspan9250"
         x="264.58701"
         y="57.151756"
         style="font-style:normal;font-variant:normal;font-weight:normal;font-stretch:normal;font-size:6.77055264px;font-family:Vision;-inkscape-font-specification:'Vision, Normal';font-variant-ligatures:normal;font-variant-caps:normal;font-variant-numeric:normal;font-feature-settings:normal;text-align:start;writing-mode:lr-tb;text-anchor:start;fill:#ffdd55;stroke-width:0.3587704">Software</tspan></text>
    <text
       transform="scale(0.88068513,1.1354796)"
       id="text9256"
       y="18.978712"
       x="82.311462"
       style="font-style:normal;font-variant:normal;font-weight:normal;font-stretch:normal;font-size:36.40919113px;line-height:1.25;font-family:Vision;-inkscape-font-specification:'Vision, Normal';font-variant-ligatures:normal;font-variant-caps:normal;font-variant-numeric:normal;text-align:start;letter-spacing:0px;word-spacing:0px;writing-mode:lr-tb;text-anchor:start;fill:#000000;fill-opacity:1;stroke:none;stroke-width:0.42667016"
       xml:space="preserve"><tspan
         style="font-style:normal;font-variant:normal;font-weight:normal;font-stretch:normal;font-size:8.05192661px;font-family:Vision;-inkscape-font-specification:'Vision, Normal';font-variant-ligatures:normal;font-variant-caps:normal;font-variant-numeric:normal;font-feature-settings:normal;text-align:start;writing-mode:lr-tb;text-anchor:start;fill:#ffdd55;stroke-width:0.42667016"
         y="18.978712"
         x="82.311462"
         id="tspan9254"
         sodipodi:role="line">Hardware</tspan></text>
    <text
       xml:space="preserve"
       style="font-style:normal;font-variant:normal;font-weight:normal;font-stretch:normal;font-size:36.40919113px;line-height:1.25;font-family:Vision;-inkscape-font-specification:'Vision, Normal';font-variant-ligatures:normal;font-variant-caps:normal;font-variant-numeric:normal;text-align:start;letter-spacing:0px;word-spacing:0px;writing-mode:lr-tb;text-anchor:start;fill:#000000;fill-opacity:1;stroke:none;stroke-width:0.42667016"
       x="11.358049"
       y="37.102997"
       id="text9260"
       transform="scale(0.88068513,1.1354796)"><tspan
         sodipodi:role="line"
         id="tspan9258"
         x="11.358049"
         y="37.102997"
         style="font-style:normal;font-variant:normal;font-weight:normal;font-stretch:normal;font-size:8.05192661px;font-family:Vision;-inkscape-font-specification:'Vision, Normal';font-variant-ligatures:normal;font-variant-caps:normal;font-variant-numeric:normal;font-feature-settings:normal;text-align:start;writing-mode:lr-tb;text-anchor:start;fill:#ffdd55;stroke-width:0.42667016">Audio</tspan></text>
    <path
       inkscape:connector-curvature="0"
       id="path9262"
       d="m 167.35076,43.1585 c -0.0955,18.064307 -0.0955,18.064307 -0.0955,18.064307"
       style="fill:none;stroke:#e5ff80;stroke-width:0.21784693px;stroke-linecap:butt;stroke-linejoin:miter;stroke-opacity:1" />
    <rect
       style="opacity:1;fill:none;fill-opacity:1;stroke:#e5ff80;stroke-width:0.17350571;stroke-linecap:round;stroke-linejoin:miter;stroke-miterlimit:4;stroke-dasharray:none;stroke-dashoffset:0;stroke-opacity:1;paint-order:stroke fill markers"
       id="rect9264"
       width="39.994328"
       height="14.452091"
       x="148.06371"
       y="28.311964" />
    <text
       transform="scale(0.89017802,1.1233708)"
       id="text9268"
       y="34.16222"
       x="169.69942"
       style="font-style:normal;font-variant:normal;font-weight:normal;font-stretch:normal;font-size:39.25445938px;line-height:1.25;font-family:Vision;-inkscape-font-specification:'Vision, Normal';font-variant-ligatures:normal;font-variant-caps:normal;font-variant-numeric:normal;text-align:start;letter-spacing:0px;word-spacing:0px;writing-mode:lr-tb;text-anchor:start;fill:#000000;fill-opacity:1;stroke:none;stroke-width:0.46001318"
       xml:space="preserve"><tspan
         style="font-style:normal;font-variant:normal;font-weight:normal;font-stretch:normal;font-size:8.68116093px;font-family:Vision;-inkscape-font-specification:'Vision, Normal';font-variant-ligatures:normal;font-variant-caps:normal;font-variant-numeric:normal;font-feature-settings:normal;text-align:start;writing-mode:lr-tb;text-anchor:start;fill:#ffdd55;stroke-width:0.46001318"
         y="34.16222"
         x="169.69942"
         id="tspan9266"
         sodipodi:role="line">Animation</tspan></text>
    <path
       style="fill:none;stroke:#e5ff80;stroke-width:0.21784693px;stroke-linecap:butt;stroke-linejoin:miter;stroke-opacity:1"
       d="m 167.35076,43.1585 c -0.0955,18.064307 -0.0955,18.064307 -0.0955,18.064307"
       id="path9270"
       inkscape:connector-curvature="0" />
    <rect
       y="150.78723"
       x="6.568028"
       height="14.452091"
       width="39.994328"
       id="rect9272"
       style="opacity:1;fill:none;fill-opacity:1;stroke:#e5ff80;stroke-width:0.17350571;stroke-linecap:round;stroke-linejoin:miter;stroke-miterlimit:4;stroke-dasharray:none;stroke-dashoffset:0;stroke-opacity:1;paint-order:stroke fill markers" />
    <text
       xml:space="preserve"
       style="font-style:normal;font-variant:normal;font-weight:normal;font-stretch:normal;font-size:51.4821167px;line-height:1.25;font-family:Vision;-inkscape-font-specification:'Vision, Normal';font-variant-ligatures:normal;font-variant-caps:normal;font-variant-numeric:normal;text-align:start;letter-spacing:0px;word-spacing:0px;writing-mode:lr-tb;text-anchor:start;fill:#000000;fill-opacity:1;stroke:none;stroke-width:0.603306"
       x="10.337181"
       y="158.28966"
       id="text9276"
       transform="scale(0.98183585,1.0185002)"><tspan
         sodipodi:role="line"
         id="tspan9274"
         x="10.337181"
         y="158.28966"
         style="font-style:normal;font-variant:normal;font-weight:normal;font-stretch:normal;font-size:11.38531876px;font-family:Vision;-inkscape-font-specification:'Vision, Normal';font-variant-ligatures:normal;font-variant-caps:normal;font-variant-numeric:normal;font-feature-settings:normal;text-align:start;writing-mode:lr-tb;text-anchor:start;fill:#ffdd55;stroke-width:0.603306">Engine</tspan></text>
    <path
       inkscape:connector-curvature="0"
       id="path9278"
       d="m 174.0855,158.23695 c -0.0946,25.34334 -0.0946,25.34334 -0.0946,25.34334"
       style="fill:none;stroke:#e5ff80;stroke-width:0.25682274px;stroke-linecap:butt;stroke-linejoin:miter;stroke-opacity:1" />
    <rect
       y="184.41614"
       x="153.88454"
       height="14.452091"
       width="39.994328"
       id="rect9280"
       style="opacity:1;fill:none;fill-opacity:1;stroke:#e5ff80;stroke-width:0.17350571;stroke-linecap:round;stroke-linejoin:miter;stroke-miterlimit:4;stroke-dasharray:none;stroke-dashoffset:0;stroke-opacity:1;paint-order:stroke fill markers" />
    <text
       xml:space="preserve"
       style="font-style:normal;font-variant:normal;font-weight:normal;font-stretch:normal;font-size:39.25445938px;line-height:1.25;font-family:Vision;-inkscape-font-specification:'Vision, Normal';font-variant-ligatures:normal;font-variant-caps:normal;font-variant-numeric:normal;text-align:start;letter-spacing:0px;word-spacing:0px;writing-mode:lr-tb;text-anchor:start;fill:#000000;fill-opacity:1;stroke:none;stroke-width:0.46001318"
       x="176.23837"
       y="173.12271"
       id="text9284"
       transform="scale(0.89017802,1.1233708)"><tspan
         sodipodi:role="line"
         id="tspan9282"
         x="176.23837"
         y="173.12271"
         style="font-style:normal;font-variant:normal;font-weight:normal;font-stretch:normal;font-size:8.68116093px;font-family:Vision;-inkscape-font-specification:'Vision, Normal';font-variant-ligatures:normal;font-variant-caps:normal;font-variant-numeric:normal;font-feature-settings:normal;text-align:start;writing-mode:lr-tb;text-anchor:start;fill:#ffdd55;stroke-width:0.46001318">Real Time</tspan></text>
  </g>
  <g
     inkscape:groupmode="layer"
     id="layer3"
     inkscape:label="Calque 3"
     sodipodi:insensitive="true">
    <g
       id="g8324"
       style="fill:#1a1a1a"
       transform="matrix(0.4582015,0,0,0.55470269,-32.204715,10.614187)">
      <path
         inkscape:connector-curvature="0"
         d="m 300.44675,186.61963 1.25485,-0.0811 3.34595,0.43967 4.65077,1.56115 v 2.61514 l -4.65077,1.56115 -3.34595,0.43967 -1.25485,-0.0811 -0.66102,4.02807 1.23825,0.18225 3.09009,1.11943 3.98865,2.47365 -0.84368,2.52602 -4.99596,0.54229 -3.37378,-0.27006 -1.18594,-0.33886 -1.93801,3.75356 1.13726,0.43315 2.62365,1.72291 3.05471,3.21755 -1.62988,2.26477 -5.00066,-0.51354 -3.1717,-0.96138 -1.03621,-0.57357 -3.08294,3.22326 0.95878,0.65453 1.97841,2.20898 1.91259,3.74219 -2.30499,1.84918 -4.66459,-1.53439 -2.75347,-1.58718 -0.81586,-0.76918 -4.01776,2.4733 0.71494,0.8313 1.19835,2.5445 0.64013,4.0118 -2.82301,1.30758 -4.01064,-2.45066 -2.1476,-2.10483 -0.53991,-0.91237 -4.67878,1.55478 0.42238,0.95143 0.33663,2.70662 -0.67595,4.00802 -3.14867,0.67685 -3.08336,-3.19991 -1.39537,-2.47904 -0.22717,-0.99338 -5.02095,0.53031 0.10105,1.0067 -0.54804,2.6843 -1.94597,3.7311 h -3.25973 l -1.94597,-3.7311 -0.54804,-2.6843 0.10105,-1.0067 -5.02095,-0.53031 -0.22717,0.99338 -1.39537,2.47904 -3.08336,3.19991 -3.14867,-0.67685 -0.67595,-4.00802 0.33663,-2.70662 0.42238,-0.95143 -4.67878,-1.55478 -0.53991,0.91237 -2.1476,2.10483 -4.01064,2.45066 -2.82301,-1.30758 0.64013,-4.0118 1.19835,-2.5445 0.71494,-0.8313 -4.01776,-2.4733 -0.81586,0.76918 -2.75347,1.58718 -4.6646,1.53439 -2.30498,-1.84918 1.91259,-3.74219 1.97841,-2.20898 0.95878,-0.65453 -3.08294,-3.22326 -1.03621,0.57357 -3.1717,0.96138 -5.00066,0.51354 -1.62988,-2.26477 3.05471,-3.21755 2.62365,-1.72291 1.13726,-0.43315 -1.93801,-3.75356 -1.18594,0.33886 -3.37378,0.27006 -4.99596,-0.54229 -0.84368,-2.52602 3.98865,-2.47365 3.09009,-1.11943 1.23825,-0.18225 -0.66102,-4.02807 -1.25485,0.0811 -3.34595,-0.43967 -4.65077,-1.56115 v -2.61514 l 4.65077,-1.56115 3.34595,-0.43967 1.25485,0.0811 0.66102,-4.02807 -1.23825,-0.18225 -3.09009,-1.11943 -3.98865,-2.47364 0.84368,-2.52603 4.99596,-0.54228 3.37378,0.27006 1.18594,0.33886 1.93801,-3.75357 -1.13726,-0.43314 -2.62365,-1.72292 -3.05471,-3.21755 1.62988,-2.26477 5.00066,0.51355 3.1717,0.96138 1.03621,0.57356 3.08294,-3.22326 -0.95878,-0.65453 -1.97841,-2.20897 -1.91259,-3.74219 2.30498,-1.84918 4.6646,1.53438 2.75347,1.58719 0.81586,0.76917 4.01776,-2.47329 -0.71494,-0.8313 -1.19835,-2.54451 -0.64013,-4.0118 2.82301,-1.30757 4.01064,2.45065 2.1476,2.10483 0.53991,0.91237 4.67878,-1.55478 -0.42238,-0.95142 -0.33663,-2.70662 0.67595,-4.00803 3.14867,-0.67684 3.08336,3.1999 1.39537,2.47904 0.22717,0.99339 5.02095,-0.53031 -0.10105,-1.00671 0.54804,-2.68429 1.94597,-3.7311 h 3.25973 l 1.94597,3.7311 0.54804,2.68429 -0.10105,1.00671 5.02095,0.53031 0.22717,-0.99339 1.39537,-2.47904 3.08336,-3.1999 3.14867,0.67684 0.67595,4.00803 -0.33663,2.70662 -0.42238,0.95142 4.67878,1.55478 0.53991,-0.91237 2.1476,-2.10483 4.01064,-2.45065 2.82301,1.30757 -0.64013,4.0118 -1.19835,2.54451 -0.71494,0.8313 4.01776,2.47329 0.81586,-0.76917 2.75347,-1.58719 4.66459,-1.53438 2.30499,1.84918 -1.91259,3.74219 -1.97841,2.20897 -0.95878,0.65453 3.08294,3.22326 1.03621,-0.57356 3.1717,-0.96138 5.00066,-0.51355 1.62988,2.26477 -3.05471,3.21755 -2.62365,1.72292 -1.13726,0.43314 1.93801,3.75357 1.18594,-0.33886 3.37378,-0.27006 4.99596,0.54228 0.84368,2.52603 -3.98865,2.47364 -3.09009,1.11943 -1.23825,0.18225 z"
         style="fill:#1a1a1a;stroke:#000000;stroke-width:0.64102209"
         id="path8315" />
      <path
         id="path8317"
         style="fill:#1a1a1a;stroke:#000000;stroke-width:0.64102209"
         d="m 232.12897,120.65293 1.80841,-0.0107 2.74755,0.52855 4.48303,1.9144 -0.27216,2.53008 -4.82557,1.26993 -2.81981,0.1431 -1.77938,-0.25907 -1.25571,4.06087 1.724,0.43817 2.40949,1.18383 3.52621,2.93209 -1.2334,2.33878 -5.07854,0.0115 -2.73692,-0.56295 -1.5925,-0.68752 -2.75845,3.55081 1.47086,0.84412 1.83555,1.72323 2.22424,3.66275 -2.0739,1.91855 -4.8344,-1.24812 -2.38612,-1.21391 -1.24975,-1.04867 -3.99116,2.69318 1.07372,1.16745 1.08196,2.09394 0.70452,4.0349 -2.71139,1.3105 -4.11703,-2.38553 -1.80175,-1.74604 -0.78464,-1.30717 -4.83319,1.57192 0.57148,1.37649 0.22245,2.25969 -0.88415,4.01207 -3.08348,0.57419 -2.99665,-3.28943 -1.04101,-2.10725 -0.24274,-1.43771 -5.20212,0.29678 0.0133,1.4508 -0.65885,2.20423 -2.38626,3.59653 -3.15372,-0.21835 -1.58295,-3.87132 -0.17838,-2.2622 0.32292,-1.42752 -5.06183,-1.0074 -0.54617,1.38309 -1.47563,1.93302 -3.65481,2.82891 -2.91527,-0.98949 -0.0143,-4.07428 0.70171,-2.19571 0.85698,-1.27758 -4.42605,-2.21298 -1.05218,1.18 -2.14798,1.47258 -4.5656,1.7844 -2.39144,-1.6638 1.55576,-3.8784 1.51314,-1.91428 1.30715,-1.00261 -3.35702,-3.20192 -1.45521,0.8614 -2.61007,0.868 -5.02947,0.56521 -1.63352,-2.17523 2.97354,-3.3029 2.17641,-1.44546 1.62937,-0.62947 -1.95938,-3.87745 -1.71577,0.45847 -2.81668,0.17846 -5.00101,-0.70931 -0.71571,-2.47373 4.10023,-2.40407 2.62667,-0.83516 1.79209,-0.19474 -0.36994,-4.17342 -1.8084,0.0107 -2.74756,-0.52855 -4.48302,-1.9144 0.27216,-2.53008 4.82557,-1.26993 2.81981,-0.1431 1.77938,0.25907 1.25571,-4.06087 -1.724,-0.43817 -2.40949,-1.18382 -3.52622,-2.9321 1.23341,-2.33877 5.07854,-0.0115 2.73692,0.56296 1.5925,0.68751 2.75844,-3.55081 -1.47085,-0.84412 -1.83555,-1.723224 -2.22424,-3.662761 2.0739,-1.918543 4.8344,1.248114 2.38612,1.213912 1.24975,1.04867 3.99116,-2.693175 -1.07372,-1.167451 -1.08197,-2.093941 -0.70451,-4.034899 2.71139,-1.310502 4.11702,2.385526 1.80176,1.746038 0.78464,1.307172 4.83319,-1.57192 -0.57149,-1.37649 -0.22244,-2.259682 0.88415,-4.012076 3.08347,-0.574183 2.99666,3.289422 1.04101,2.107256 0.24274,1.437706 5.20212,-0.296781 -0.0133,-1.450796 0.65884,-2.204236 2.38627,-3.596521 3.15372,0.218339 1.58295,3.871329 0.17838,2.262197 -0.32292,1.427526 5.06183,1.007394 0.54616,-1.383092 1.47564,-1.933012 3.65481,-2.828922 2.91527,0.989504 0.0143,4.074274 -0.70171,2.195704 -0.85698,1.277586 4.42604,2.212975 1.05218,-1.179997 2.14799,-1.472585 4.5656,-1.784398 2.39144,1.663797 -1.55577,3.878413 -1.51313,1.914271 -1.30715,1.002611 3.35702,3.201911 1.45521,-0.86139 2.61007,-0.868004 5.02946,-0.565204 1.63353,2.175228 -2.97354,3.30289 -2.17641,1.44547 -1.62937,0.62948 1.95938,3.87744 1.71577,-0.45847 2.81668,-0.17846 5.00101,0.70931 0.71571,2.47372 -4.10023,2.40408 -2.62667,0.83516 -1.79209,0.19474 z"
         inkscape:connector-curvature="0" />
      <path
         inkscape:connector-curvature="0"
         d="m 294.98763,92.906563 2.96653,-0.249189 1.1321,0.06764 4.22026,1.232394 v 2.6943 l -4.22026,1.232393 -1.1321,0.06764 -2.96653,-0.249189 -1.02919,4.150938 2.85959,0.68053 1.01365,0.41005 3.31115,2.43425 -1.28521,2.48921 -4.48689,-0.15708 -1.07817,-0.28507 -2.62186,-1.14097 -2.93089,3.51899 2.31729,1.50665 0.7409,0.69003 1.89794,3.26551 -2.37475,1.90515 -4.07042,-1.52263 -0.86012,-0.59439 -1.87802,-1.85905 -4.38639,2.35132 1.42221,2.10339 0.35534,0.86497 0.19579,3.59962 -3.10276,1.03106 -3.03427,-2.65638 -0.51112,-0.81321 -0.84828,-2.29411 -5.1741,0.82567 0.31061,2.37991 -0.0843,0.90823 -1.53617,3.38572 h -3.35841 l -1.53617,-3.38572 -0.0843,-0.90823 0.31061,-2.37991 -5.17409,-0.82567 -0.84828,2.29411 -0.51112,0.81321 -3.03427,2.65638 -3.10277,-1.03106 0.1958,-3.59962 0.35534,-0.86497 1.42221,-2.10339 -4.38639,-2.35132 -1.87802,1.85905 -0.86012,0.59439 -4.07042,1.52263 -2.37475,-1.90515 1.89794,-3.26551 0.7409,-0.69003 2.31729,-1.50665 -2.93089,-3.51899 -2.62186,1.14097 -1.07818,0.28507 -4.48688,0.15708 -1.28521,-2.48921 3.31115,-2.43425 1.01365,-0.41005 2.85959,-0.68053 -1.02919,-4.150938 -2.96654,0.249189 -1.13209,-0.06764 -4.22026,-1.232393 v -2.6943 l 4.22026,-1.232394 1.13209,-0.06764 2.96654,0.249189 1.02919,-4.150935 -2.85959,-0.680534 -1.01365,-0.41005 -3.31115,-2.434248 1.28521,-2.489206 4.48688,0.157077 1.07818,0.285073 2.62186,1.140972 2.93089,-3.518993 -2.31729,-1.50665 -0.7409,-0.690036 -1.89794,-3.265503 2.37475,-1.905154 4.07042,1.522629 0.86012,0.594388 1.87802,1.859054 4.38639,-2.351317 -1.42221,-2.103392 -0.35534,-0.864969 -0.1958,-3.599621 3.10277,-1.031061 3.03427,2.656383 0.51112,0.813204 0.84828,2.294114 5.17409,-0.825674 -0.31061,-2.379911 0.0843,-0.908226 1.53617,-3.385719 h 3.35841 l 1.53617,3.385719 0.0843,0.908226 -0.31061,2.379911 5.1741,0.825674 0.84828,-2.294114 0.51112,-0.813204 3.03427,-2.656383 3.10276,1.031061 -0.19579,3.599621 -0.35534,0.864969 -1.42221,2.103392 4.38639,2.351317 1.87802,-1.859054 0.86012,-0.594388 4.07042,-1.522629 2.37475,1.905154 -1.89794,3.265503 -0.7409,0.690036 -2.31729,1.50665 2.93089,3.518993 2.62186,-1.140972 1.07817,-0.285073 4.48689,-0.157077 1.28521,2.489206 -3.31115,2.434248 -1.01365,0.41005 -2.85959,0.680534 z"
         style="fill:#1a1a1a;stroke:#000000;stroke-width:0.64102209"
         id="path8319" />
    </g>
    <path
       inkscape:connector-curvature="0"
       d="m 104.04222,112.75907 0.57497,-0.045 1.53312,0.24388 2.13099,0.86598 v 1.45062 l -2.13099,0.86598 -1.53312,0.24388 -0.57497,-0.045 -0.30288,2.23438 0.56737,0.10109 1.41588,0.62095 1.82761,1.37214 -0.38658,1.40119 -2.28916,0.30081 -1.54587,-0.1498 -0.5434,-0.18797 -0.88799,2.08211 0.52109,0.24027 1.20216,0.9557 1.39967,1.78479 -0.74681,1.25627 -2.29131,-0.28486 -1.45328,-0.53328 -0.47479,-0.31816 -1.412609,1.78795 0.439314,0.36307 0.90651,1.22533 0.876355,2.0758 -1.056153,1.02575 -2.137322,-0.85113 -1.261644,-0.88042 -0.373828,-0.42666 -1.840944,1.37194 0.327587,0.46113 0.549085,1.41144 0.293309,2.22535 -1.293508,0.72532 -1.837681,-1.35939 -0.984033,-1.16755 -0.247388,-0.50609 -2.143824,0.86244 0.193535,0.52776 0.154245,1.50137 -0.309722,2.22326 -1.442725,0.37545 -1.4128,-1.775 -0.639361,-1.37513 -0.104089,-0.55103 -2.300607,0.29416 0.0463,0.55842 -0.251113,1.48899 -0.891646,2.06965 H 80.40556 l -0.891647,-2.06965 -0.251112,-1.48899 0.0463,-0.55842 -2.300607,-0.29416 -0.10409,0.55103 -0.63936,1.37513 -1.4128,1.775 -1.442726,-0.37545 -0.309721,-2.22326 0.154244,-1.50137 0.193535,-0.52776 -2.143824,-0.86244 -0.247387,0.50609 -0.984034,1.16755 -1.837681,1.35939 -1.293507,-0.72532 0.293308,-2.22535 0.549086,-1.41144 0.327586,-0.46113 -1.840943,-1.37194 -0.373828,0.42666 -1.261645,0.88042 -2.137326,0.85113 -1.056146,-1.02575 0.876352,-2.0758 0.906511,-1.22533 0.439314,-0.36307 -1.412608,-1.78795 -0.474793,0.31816 -1.453277,0.53328 -2.29131,0.28486 -0.746814,-1.25627 1.399673,-1.78479 1.20216,-0.9557 0.521094,-0.24027 -0.887999,-2.08211 -0.543399,0.18797 -1.545871,0.1498 -2.289157,-0.30081 -0.386575,-1.40119 1.827605,-1.37214 1.415884,-0.62095 0.567368,-0.10109 -0.30288,-2.23438 -0.574974,0.045 -1.533119,-0.24388 -2.13099,-0.86598 v -1.45062 l 2.13099,-0.86598 1.533119,-0.24388 0.574974,0.045 0.30288,-2.23438 -0.567368,-0.10109 -1.415884,-0.62095 -1.827605,-1.37214 0.386575,-1.40119 2.289157,-0.30081 1.545871,0.1498 0.543399,0.18797 0.887999,-2.08211 -0.521094,-0.24027 -1.20216,-0.95571 -1.399673,-1.78478 0.746814,-1.25627 2.29131,0.28486 1.453277,0.53328 0.474793,0.31816 1.412608,-1.78795 -0.439314,-0.363072 -0.906511,-1.225322 -0.876352,-2.075802 1.056146,-1.025746 2.137326,0.851125 1.261645,0.880419 0.373828,0.42666 1.840943,-1.37194 -0.327586,-0.461125 -0.549086,-1.411446 -0.293308,-2.225356 1.293507,-0.725313 1.837681,1.359382 0.984034,1.167555 0.247387,0.506094 2.143824,-0.86244 -0.193535,-0.527756 -0.154244,-1.501369 0.309721,-2.223265 1.442726,-0.375445 1.4128,1.774993 0.63936,1.37513 0.10409,0.551036 2.300607,-0.294164 -0.0463,-0.558425 0.251112,-1.488983 0.891647,-2.069651 h 1.493613 l 0.891646,2.069651 0.251113,1.488983 -0.0463,0.558425 2.300607,0.294164 0.104089,-0.551036 0.639361,-1.37513 1.4128,-1.774993 1.442725,0.375445 0.309722,2.223265 -0.154245,1.501369 -0.193535,0.527756 2.143824,0.86244 0.247388,-0.506094 0.984033,-1.167555 1.837681,-1.359382 1.293508,0.725313 -0.293309,2.225356 -0.549085,1.411446 -0.327587,0.461125 1.840944,1.37194 0.373828,-0.42666 1.261644,-0.880419 2.137322,-0.851125 1.056153,1.025746 -0.876355,2.075802 -0.90651,1.225322 -0.439314,0.363072 1.412609,1.78795 0.47479,-0.31816 1.45328,-0.53328 2.29131,-0.28486 0.74681,1.25627 -1.39967,1.78478 -1.20216,0.95571 -0.52109,0.24027 0.88799,2.08211 0.5434,-0.18797 1.54587,-0.1498 2.28916,0.30081 0.38658,1.40119 -1.82761,1.37214 -1.41588,0.62095 -0.56737,0.10109 z"
       style="fill:#aa4400;stroke:#000000;stroke-width:0.32317024"
       id="path1171" />
    <ellipse
       cy="114.54929"
       cx="81.152367"
       style="fill:#ffe6d5;stroke:#000000;stroke-width:0.32317024"
       id="path1173"
       rx="3.2792444"
       ry="3.18485" />
    <path
       id="path3097"
       style="fill:#803300;stroke:#000000;stroke-width:0.32317024"
       d="m 72.73891,76.167167 0.828616,-0.0059 1.258932,0.293189 2.054131,1.061922 -0.124704,1.403443 -2.211084,0.704433 -1.292041,0.07938 -0.815314,-0.143707 -0.575368,2.252576 0.789939,0.243054 1.104032,0.656674 1.615715,1.626438 -0.565146,1.297327 -2.326995,0.0064 -1.254061,-0.31227 -0.729686,-0.381369 -1.263925,1.969644 0.67395,0.468236 0.841052,0.95588 1.01915,2.031737 -0.950264,1.064225 -2.21513,-0.692335 -1.093324,-0.673359 -0.572637,-0.581701 -1.828755,1.493915 0.49198,0.647587 0.495755,1.161514 0.322813,2.23817 -1.242363,0.726938 -1.88643,-1.32326 -0.825564,-0.968533 -0.359524,-0.72509 -2.214574,0.871948 0.261853,0.763543 0.101927,1.253456 -0.405119,2.225506 -1.412856,0.318504 -1.373069,-1.824655 -0.476992,-1.168898 -0.111224,-0.797501 -2.383619,0.164625 0.0061,0.804762 -0.301886,1.222693 -1.093388,1.995004 -1.44504,-0.121119 -0.72531,-2.147432 -0.08173,-1.254848 0.147963,-0.791849 -2.319338,-0.558808 -0.250256,0.767204 -0.676136,1.072251 -1.674639,1.569204 -1.335782,-0.548872 -0.0066,-2.260014 0.321525,-1.217967 0.392669,-0.708677 -2.028022,-1.227546 -0.482111,0.65455 -0.984208,0.816844 -2.091964,0.989811 -1.095762,-0.922914 0.712852,-2.151359 0.693323,-1.061856 0.598938,-0.556151 -1.538192,-1.776114 -0.666779,0.477821 -1.195938,0.481482 -2.304511,0.313524 -0.748481,-1.206606 1.36248,-1.832128 0.997235,-0.8018 0.74658,-0.349169 -0.897791,-2.150832 -0.786169,0.254315 -1.290607,0.09899 -2.29147,-0.393456 -0.327939,-1.372185 1.878731,-1.333544 1.203544,-0.463266 0.821139,-0.108022 -0.169507,-2.315008 -0.828612,0.0059 -1.258936,-0.293188 -2.054127,-1.061923 0.124704,-1.403442 2.211084,-0.704434 1.292041,-0.07938 0.815315,0.143707 0.575368,-2.252576 -0.78994,-0.243054 -1.104031,-0.656668 -1.61572,-1.626444 0.565151,-1.297322 2.326994,-0.0064 1.254061,0.312276 0.729686,0.381363 1.263921,-1.969643 -0.673945,-0.468236 -0.841052,-0.955877 -1.01915,-2.031743 0.950264,-1.064221 2.215129,0.692332 1.093324,0.67336 0.572637,0.5817 1.828756,-1.493911 -0.49198,-0.647589 -0.495761,-1.161514 -0.322807,-2.23817 1.242363,-0.726939 1.886424,1.323258 0.82557,0.968532 0.359523,0.725092 2.214575,-0.871948 -0.261858,-0.763543 -0.101922,-1.253452 0.405119,-2.225509 1.41285,-0.318501 1.373074,1.824651 0.476993,1.168901 0.111224,0.797499 2.383619,-0.164625 -0.0061,-0.80476 0.301881,-1.222696 1.093393,-1.995 1.445039,0.121113 0.72531,2.147437 0.08173,1.254847 -0.147963,0.791852 2.319339,0.558804 0.250251,-0.767205 0.67614,-1.072246 1.67464,-1.569211 1.335781,0.54888 0.0066,2.260011 -0.321524,1.217963 -0.39267,0.70868 2.028018,1.227544 0.482111,-0.654548 0.984212,-0.816847 2.091965,-0.98981 1.095761,0.922913 -0.712856,2.151366 -0.693318,1.061851 -0.598939,0.556151 1.538192,1.776109 0.666779,-0.477816 1.195938,-0.481484 2.304507,-0.31352 0.748485,1.206605 -1.36248,1.832122 -0.997234,0.801806 -0.74658,0.349174 0.897791,2.150827 0.786168,-0.254315 1.290607,-0.09899 2.29147,0.393456 0.32794,1.372179 -1.878732,1.33355 -1.203544,0.463265 -0.821138,0.108023 z"
       inkscape:connector-curvature="0" />
    <ellipse
       id="path3099"
       style="fill:#000000;stroke:#000000;stroke-width:0.32317227"
       cx="60.493084"
       cy="71.529633"
       transform="matrix(0.99650591,0.08352232,-0.0885084,0.99607543,0,0)"
       rx="12.474908"
       ry="12.121049" />
    <path
       inkscape:connector-curvature="0"
       d="m 101.54084,60.776182 1.35927,-0.138225 0.51873,0.03752 1.93373,0.683612 v 1.494535 l -1.93373,0.683612 -0.51873,0.03752 -1.35927,-0.138226 -0.47157,2.302537 1.31026,0.377492 0.46446,0.227455 1.51717,1.350285 -0.58888,1.380772 -2.0559,-0.08713 -0.49402,-0.158129 -1.20134,-0.632899 -1.342938,1.951993 1.061786,0.835743 0.339482,0.382762 0.86964,1.811387 -1.088116,1.056792 -1.865072,-0.844607 -0.394109,-0.32971 -0.860511,-1.03122 -2.009851,1.304283 0.651659,1.166756 0.162817,0.479802 0.08971,1.996719 -1.42169,0.571931 -1.390307,-1.473501 -0.234196,-0.45109 -0.388683,-1.272549 -2.37078,0.458002 0.142322,1.320142 -0.03863,0.503798 -0.703875,1.878068 H 87.69085 l -0.703876,-1.878068 -0.03863,-0.503798 0.142322,-1.320142 -2.370776,-0.458002 -0.388683,1.272549 -0.234196,0.45109 -1.390307,1.473501 -1.421694,-0.571931 0.08972,-1.996719 0.162817,-0.479802 0.651659,-1.166756 -2.009851,-1.304283 -0.860511,1.03122 -0.394109,0.32971 -1.865072,0.844607 -1.088114,-1.056792 0.869639,-1.811387 0.339481,-0.382762 1.061786,-0.835743 -1.342938,-1.951993 -1.20134,0.632899 -0.494024,0.158129 -2.055895,0.08713 -0.588885,-1.380772 1.517174,-1.350285 0.464456,-0.227455 1.310268,-0.377492 -0.471576,-2.302537 -1.359273,0.138226 -0.518726,-0.03752 -1.933729,-0.683612 v -1.494535 l 1.933729,-0.683612 0.518726,-0.03752 1.359273,0.138225 0.471576,-2.302534 -1.310268,-0.377495 -0.464456,-0.227455 -1.517174,-1.350284 0.588885,-1.38077 2.055895,0.08713 0.494024,0.158131 1.20134,0.6329 1.342938,-1.951994 -1.061786,-0.835743 -0.339481,-0.382765 -0.869639,-1.811383 1.088114,-1.056794 1.865072,0.844606 0.394109,0.329709 0.860511,1.031222 2.009851,-1.304282 -0.651659,-1.166757 -0.162817,-0.479801 -0.08972,-1.996719 1.421694,-0.571933 1.390307,1.473503 0.234196,0.451087 0.388683,1.272551 2.370776,-0.458004 -0.142322,-1.320143 0.03863,-0.503795 0.703876,-1.878068 h 1.538828 l 0.703875,1.878068 0.03863,0.503795 -0.142322,1.320143 2.37078,0.458004 0.388683,-1.272551 0.234196,-0.451087 1.390307,-1.473503 1.42169,0.571933 -0.08971,1.996719 -0.162817,0.479801 -0.651659,1.166757 2.009851,1.304282 0.860511,-1.031222 0.394109,-0.329709 1.865072,-0.844606 1.088116,1.056794 -0.86964,1.811383 -0.339482,0.382765 -1.061786,0.835743 1.342938,1.951994 1.20134,-0.6329 0.49402,-0.158131 2.0559,-0.08713 0.58888,1.38077 -1.51717,1.350284 -0.46446,0.227455 -1.31026,0.377495 z"
       style="fill:#552200;stroke:#000000;stroke-width:0.32317024"
       id="path8196" />
    <ellipse
       cy="61.757828"
       cx="88.316727"
       style="fill:#000000;stroke:#000000;stroke-width:0.22196947"
       id="path8198"
       rx="7.2434907"
       ry="6.9652796" />
    <g
       id="g8290"
       transform="matrix(0.4582015,0,0,0.55470269,28.151469,4.3845175)">
      <path
         style="fill:none;stroke:#ff9955;stroke-width:0.9168517px;stroke-linecap:butt;stroke-linejoin:miter;stroke-opacity:1"
         d="m 267.01775,198.711 c 160.31648,-0.61955 160.31648,-0.61955 160.31648,-0.61955"
         id="path974"
         inkscape:connector-curvature="0" />
      <g
         id="g967"
         transform="matrix(0.83471906,-0.10081509,0.08931698,1.0452376,-2.6144481,25.710852)">
        <path
           sodipodi:nodetypes="ssssssssss"
           inkscape:connector-curvature="0"
           id="path844"
           d="m 261.62312,144.38871 c -38.70197,-27.26162 -85.45916,-32.39735 -111.33408,-19.85083 -25.87492,12.54653 -21.0722,38.0256 17.62977,65.28723 38.70198,27.26161 96.58075,39.15308 122.45567,26.60656 25.87493,-12.54652 9.95061,-44.78133 -28.75136,-72.04296 z m 1.45679,-1.66677 c 38.22348,26.92457 59.02481,66.76314 33.48645,79.14646 -25.53835,12.38334 -94.32846,-5.10945 -132.55195,-32.03404 -38.2235,-26.92458 -43.97409,-59.08309 -18.43572,-71.46641 25.53834,-12.38332 79.27771,-2.57061 117.50122,24.35399 z"
           style="color:#000000;font-style:normal;font-variant:normal;font-weight:normal;font-stretch:normal;font-size:medium;line-height:normal;font-family:sans-serif;font-variant-ligatures:normal;font-variant-position:normal;font-variant-caps:normal;font-variant-numeric:normal;font-variant-alternates:normal;font-feature-settings:normal;text-indent:0;text-align:start;text-decoration:none;text-decoration-line:none;text-decoration-style:solid;text-decoration-color:#000000;letter-spacing:normal;word-spacing:normal;text-transform:none;writing-mode:lr-tb;direction:ltr;text-orientation:mixed;dominant-baseline:auto;baseline-shift:baseline;text-anchor:start;white-space:normal;shape-padding:0;clip-rule:nonzero;display:inline;overflow:visible;visibility:visible;opacity:1;isolation:auto;mix-blend-mode:normal;color-interpolation:sRGB;color-interpolation-filters:linearRGB;solid-color:#000000;solid-opacity:1;vector-effect:none;fill:#212121;fill-opacity:1;fill-rule:nonzero;stroke:none;stroke-width:0.80977345;stroke-linecap:round;stroke-linejoin:miter;stroke-miterlimit:4;stroke-dasharray:none;stroke-dashoffset:0;stroke-opacity:1;paint-order:stroke fill markers;color-rendering:auto;image-rendering:auto;shape-rendering:auto;text-rendering:auto;enable-background:accumulate" />
        <path
           style="color:#000000;font-style:normal;font-variant:normal;font-weight:normal;font-stretch:normal;font-size:medium;line-height:normal;font-family:sans-serif;font-variant-ligatures:normal;font-variant-position:normal;font-variant-caps:normal;font-variant-numeric:normal;font-variant-alternates:normal;font-feature-settings:normal;text-indent:0;text-align:start;text-decoration:none;text-decoration-line:none;text-decoration-style:solid;text-decoration-color:#000000;letter-spacing:normal;word-spacing:normal;text-transform:none;writing-mode:lr-tb;direction:ltr;text-orientation:mixed;dominant-baseline:auto;baseline-shift:baseline;text-anchor:start;white-space:normal;shape-padding:0;clip-rule:nonzero;display:inline;overflow:visible;visibility:visible;opacity:1;isolation:auto;mix-blend-mode:normal;color-interpolation:sRGB;color-interpolation-filters:linearRGB;solid-color:#000000;solid-opacity:1;vector-effect:none;fill:#212121;fill-opacity:1;fill-rule:nonzero;stroke:none;stroke-width:0.80977345;stroke-linecap:round;stroke-linejoin:miter;stroke-miterlimit:4;stroke-dasharray:none;stroke-dashoffset:0;stroke-opacity:1;paint-order:stroke fill markers;color-rendering:auto;image-rendering:auto;shape-rendering:auto;text-rendering:auto;enable-background:accumulate"
           d="m 258.72911,141.17815 c -38.70197,-27.26162 -85.45915,-32.39735 -111.33408,-19.85083 -25.87491,12.54653 -21.07219,38.0256 17.62978,65.28723 38.70197,27.26161 96.58074,39.15308 122.45566,26.60656 25.87492,-12.54652 9.95061,-44.78133 -28.75136,-72.04296 z m 1.45679,-1.66677 c 38.22348,26.92457 59.02481,66.76314 33.48645,79.14646 -25.53835,12.38334 -94.32846,-5.10945 -132.55195,-32.03404 -38.2235,-26.92458 -43.97408,-59.08309 -18.43572,-71.46641 25.53834,-12.38332 79.27771,-2.57061 117.50122,24.35399 z"
           id="path902"
           inkscape:connector-curvature="0"
           sodipodi:nodetypes="ssssssssss" />
        <path
           style="color:#000000;font-style:normal;font-variant:normal;font-weight:normal;font-stretch:normal;font-size:medium;line-height:normal;font-family:sans-serif;font-variant-ligatures:normal;font-variant-position:normal;font-variant-caps:normal;font-variant-numeric:normal;font-variant-alternates:normal;font-feature-settings:normal;text-indent:0;text-align:start;text-decoration:none;text-decoration-line:none;text-decoration-style:solid;text-decoration-color:#000000;letter-spacing:normal;word-spacing:normal;text-transform:none;writing-mode:lr-tb;direction:ltr;text-orientation:mixed;dominant-baseline:auto;baseline-shift:baseline;text-anchor:start;white-space:normal;shape-padding:0;clip-rule:nonzero;display:inline;overflow:visible;visibility:visible;opacity:1;isolation:auto;mix-blend-mode:normal;color-interpolation:sRGB;color-interpolation-filters:linearRGB;solid-color:#000000;solid-opacity:1;vector-effect:none;fill:#e88221;fill-opacity:1;fill-rule:nonzero;stroke:none;stroke-width:0.80977345;stroke-linecap:round;stroke-linejoin:miter;stroke-miterlimit:4;stroke-dasharray:none;stroke-dashoffset:0;stroke-opacity:1;paint-order:stroke fill markers;color-rendering:auto;image-rendering:auto;shape-rendering:auto;text-rendering:auto;enable-background:accumulate"
           d="M 254.69809,138.3683 C 215.99612,111.10668 169.23893,105.97095 143.364,118.51747 c -25.87492,12.54653 -21.07219,38.0256 17.62978,65.28723 38.70197,27.26162 96.58075,39.15309 122.45566,26.60656 25.87493,-12.54653 9.95062,-44.78133 -28.75135,-72.04296 z m 1.45678,-1.66677 c 38.22349,26.92458 59.0248,66.76314 33.48646,79.14646 -25.53835,12.38334 -94.32847,-5.10945 -132.55196,-32.03403 -38.22351,-26.92459 -43.97408,-59.08309 -18.43572,-71.46642 25.53834,-12.383318 79.27771,-2.5706 117.50122,24.35399 z"
           id="path848"
           inkscape:connector-curvature="0"
           sodipodi:nodetypes="ssssssssss" />
      </g>
      <path
         style="fill:#ff9955;stroke:#ff9955;stroke-width:0.9375px;stroke-linecap:butt;stroke-linejoin:miter;stroke-opacity:1"
         d="M 146.71167,198.71075 H 116.99792"
         id="path972"
         inkscape:connector-curvature="0" />
      <flowRoot
         xml:space="preserve"
         id="flowRoot938"
         style="font-style:normal;font-variant:normal;font-weight:normal;font-stretch:condensed;line-height:0.01%;font-family:Impact;-inkscape-font-specification:'Impact, Condensed';font-variant-ligatures:normal;font-variant-caps:normal;font-variant-numeric:normal;font-feature-settings:normal;text-align:start;letter-spacing:0px;word-spacing:0px;writing-mode:lr-tb;text-anchor:start;fill:#ffccaa;fill-opacity:1;stroke:none"
         transform="matrix(1.5589923,0,0,1.1920712,-28.861263,-2.7584135)"><flowRegion
           id="flowRegion940"
           style="font-style:normal;font-variant:normal;font-weight:normal;font-stretch:condensed;font-size:85.33364868px;font-family:Impact;-inkscape-font-specification:'Impact, Condensed';font-variant-ligatures:normal;font-variant-caps:normal;font-variant-numeric:normal;font-feature-settings:normal;text-align:start;writing-mode:lr-tb;text-anchor:start;fill:#ffccaa"><rect
             id="rect942"
             width="389.58035"
             height="233.74821"
             x="106.96952"
             y="97.725243"
             style="font-style:normal;font-variant:normal;font-weight:normal;font-stretch:condensed;font-size:85.33364868px;font-family:Impact;-inkscape-font-specification:'Impact, Condensed';font-variant-ligatures:normal;font-variant-caps:normal;font-variant-numeric:normal;font-feature-settings:normal;text-align:start;writing-mode:lr-tb;text-anchor:start;fill:#ffccaa" /></flowRegion><flowPara
           id="flowPara944"
           style="font-style:normal;font-variant:normal;font-weight:normal;font-stretch:condensed;font-size:85.33364868px;line-height:1.25;font-family:Impact;-inkscape-font-specification:'Impact, Condensed';font-variant-ligatures:normal;font-variant-caps:normal;font-variant-numeric:normal;font-feature-settings:normal;text-align:start;writing-mode:lr-tb;text-anchor:start;fill:#ffccaa">B</flowPara></flowRoot>      <g
         aria-label="Z"
         transform="scale(1.4976897,0.66769506)"
         style="font-style:normal;font-variant:normal;font-weight:normal;font-stretch:normal;font-size:87.14253235px;line-height:1.25;font-family:Vision;-inkscape-font-specification:'Vision, Normal';font-variant-ligatures:normal;font-variant-caps:normal;font-variant-numeric:normal;text-align:start;letter-spacing:0px;word-spacing:0px;writing-mode:lr-tb;text-anchor:start;fill:#e88221;fill-opacity:1;stroke:none;stroke-width:1.02120161"
         id="text948">
        <path
           d="m 158.03266,218.9507 v 15.6889 l -13.57513,47.0183 22.15394,-0.0374 v 15.6889 h -33.5487 v -11.3793 l 14.00744,-51.3279 -19.7139,0.52753 V 219.4408 Z"
           style="font-style:normal;font-variant:normal;font-weight:normal;font-stretch:condensed;font-size:87.14250946px;font-family:Impact;-inkscape-font-specification:'Impact, Condensed';font-variant-ligatures:normal;font-variant-caps:normal;font-variant-numeric:normal;font-feature-settings:normal;text-align:start;writing-mode:lr-tb;text-anchor:start;fill:#e88221;fill-opacity:1;stroke-width:1.0981009"
           id="path969"
           inkscape:connector-curvature="0"
           sodipodi:nodetypes="ccccccccccc" />
      </g>
      <flowRoot
         xml:space="preserve"
         id="flowRoot950"
         style="font-style:normal;font-variant:normal;font-weight:normal;font-stretch:normal;line-height:0.01%;font-family:Vision;-inkscape-font-specification:'Vision, Normal';font-variant-ligatures:normal;font-variant-caps:normal;font-variant-numeric:normal;text-align:start;letter-spacing:0px;word-spacing:0px;writing-mode:lr-tb;text-anchor:start;fill:#ffccaa;fill-opacity:1;stroke:none"
         transform="matrix(0.91224072,0,0,0.75097636,-241.46427,24.592148)"><flowRegion
           id="flowRegion952"
           style="fill:#ffccaa"><rect
             id="rect954"
             width="948.19897"
             height="183.56499"
             x="516.35907"
             y="142.62604"
             style="fill:#ffccaa" /></flowRegion><flowPara
           id="flowPara956"
           style="font-size:85.33333588px;line-height:1.25;fill:#ffccaa">Scene</flowPara></flowRoot>      <ellipse
         style="opacity:1;fill:#ff9955;fill-opacity:1;stroke:none;stroke-width:7.21461105;stroke-linecap:round;stroke-linejoin:miter;stroke-miterlimit:4;stroke-dasharray:none;stroke-dashoffset:0;stroke-opacity:1;paint-order:stroke fill markers"
         id="path976"
         cx="115.58231"
         cy="198.71716"
         rx="3.148288"
         ry="3.0951829" />
      <ellipse
         ry="3.0951829"
         rx="3.148288"
         cy="198.38889"
         cx="430.16769"
         id="ellipse978"
         style="opacity:1;fill:#ff9955;fill-opacity:1;stroke:none;stroke-width:7.21461105;stroke-linecap:round;stroke-linejoin:miter;stroke-miterlimit:4;stroke-dasharray:none;stroke-dashoffset:0;stroke-opacity:1;paint-order:stroke fill markers" />
      <text
         xml:space="preserve"
         style="font-style:normal;font-variant:normal;font-weight:normal;font-stretch:normal;line-height:0%;font-family:Vision;-inkscape-font-specification:'Vision, Normal';font-variant-ligatures:normal;font-variant-caps:normal;font-variant-numeric:normal;text-align:start;letter-spacing:0px;word-spacing:0px;writing-mode:lr-tb;text-anchor:start;fill:#000000;fill-opacity:1;stroke:none;stroke-width:0.66328663"
         x="276.27994"
         y="210.30316"
         id="text984"
         transform="scale(1.0008843,0.99911644)"><tspan
           sodipodi:role="line"
           id="tspan982"
           x="276.27994"
           y="210.30316"
           style="font-style:normal;font-variant:normal;font-weight:normal;font-stretch:normal;font-size:10.61258602px;line-height:1.25;font-family:Vision;-inkscape-font-specification:'Vision, Normal';font-variant-ligatures:normal;font-variant-caps:normal;font-variant-numeric:normal;font-feature-settings:normal;text-align:start;writing-mode:lr-tb;text-anchor:start;fill:#ff6600;stroke-width:0.66328663">Multimedia solution  for Lazarus</tspan></text>
    </g>
  </g>
</svg>
